<mxfile host="app.diagrams.net" agent="Mozilla/5.0 (Windows NT 10.0; Win64; x64) AppleWebKit/537.36 (KHTML, like Gecko) Chrome/141.0.0.0 Safari/537.36" version="28.2.5">
  <diagram name="Página-1" id="6CAupsV__flEeniP3BK9">
    <mxGraphModel dx="2046" dy="623" grid="1" gridSize="10" guides="1" tooltips="1" connect="1" arrows="1" fold="1" page="1" pageScale="1" pageWidth="1100" pageHeight="850" math="0" shadow="0">
      <root>
        <mxCell id="0" />
        <mxCell id="1" parent="0" />
        <mxCell id="FbaqpglJVMi_n5HGXFX3-2" value="Diagrama &lt;i&gt;Activity on Node&lt;/i&gt; (AoN) - Sistema SPCP - Fase 3" style="text;html=1;align=left;verticalAlign=middle;resizable=0;points=[];autosize=1;strokeColor=none;fillColor=none;" parent="1" vertex="1">
          <mxGeometry x="-1040" y="90" width="340" height="30" as="geometry" />
        </mxCell>
        <mxCell id="FbaqpglJVMi_n5HGXFX3-18" value="" style="edgeStyle=orthogonalEdgeStyle;rounded=0;orthogonalLoop=1;jettySize=auto;html=1;exitX=1;exitY=0.5;exitDx=0;exitDy=0;exitPerimeter=0;" parent="1" source="KngnvmtrA6OP-5YAWjl_-3" target="FbaqpglJVMi_n5HGXFX3-4" edge="1">
          <mxGeometry relative="1" as="geometry">
            <mxPoint x="-960.0000000000002" y="160" as="sourcePoint" />
          </mxGeometry>
        </mxCell>
        <mxCell id="FbaqpglJVMi_n5HGXFX3-4" value="1.3.1&lt;div&gt;Planificación de la fase&lt;div&gt;t=1 d&lt;/div&gt;&lt;/div&gt;" style="rounded=1;whiteSpace=wrap;html=1;absoluteArcSize=1;arcSize=14;strokeWidth=2;align=center;verticalAlign=top;" parent="1" vertex="1">
          <mxGeometry x="-978" y="120" width="98" height="80" as="geometry" />
        </mxCell>
        <mxCell id="FbaqpglJVMi_n5HGXFX3-16" value="" style="edgeStyle=orthogonalEdgeStyle;rounded=0;orthogonalLoop=1;jettySize=auto;html=1;" parent="1" source="FbaqpglJVMi_n5HGXFX3-5" target="FbaqpglJVMi_n5HGXFX3-6" edge="1">
          <mxGeometry relative="1" as="geometry" />
        </mxCell>
        <mxCell id="FbaqpglJVMi_n5HGXFX3-17" value="" style="edgeStyle=orthogonalEdgeStyle;rounded=0;orthogonalLoop=1;jettySize=auto;html=1;strokeColor=#FF0000;" parent="1" source="FbaqpglJVMi_n5HGXFX3-5" target="FbaqpglJVMi_n5HGXFX3-6" edge="1">
          <mxGeometry relative="1" as="geometry" />
        </mxCell>
        <mxCell id="FbaqpglJVMi_n5HGXFX3-5" value="&lt;div&gt;1.3.2&lt;/div&gt;&lt;div&gt;Ingesta y validación de datos&lt;br&gt;&lt;div&gt;t=5 d&lt;/div&gt;&lt;/div&gt;" style="rounded=1;whiteSpace=wrap;html=1;absoluteArcSize=1;arcSize=14;strokeWidth=2;align=center;verticalAlign=top;" parent="1" vertex="1">
          <mxGeometry x="-838" y="120" width="98" height="80" as="geometry" />
        </mxCell>
        <mxCell id="FbaqpglJVMi_n5HGXFX3-6" value="1.3.3&lt;div&gt;&lt;div&gt;Implementación de métricas EVM&lt;/div&gt;&lt;div&gt;t=5 d&lt;/div&gt;&lt;/div&gt;" style="rounded=1;whiteSpace=wrap;html=1;absoluteArcSize=1;arcSize=14;strokeWidth=2;align=center;verticalAlign=top;" parent="1" vertex="1">
          <mxGeometry x="-699" y="120" width="98" height="80" as="geometry" />
        </mxCell>
        <mxCell id="FbaqpglJVMi_n5HGXFX3-7" value="1.3.4&lt;div&gt;&lt;div&gt;Simulación Monte Carlo&lt;/div&gt;&lt;div&gt;t=6 d&lt;/div&gt;&lt;/div&gt;" style="rounded=1;whiteSpace=wrap;html=1;absoluteArcSize=1;arcSize=14;strokeWidth=2;align=center;verticalAlign=top;" parent="1" vertex="1">
          <mxGeometry x="-559" y="120" width="100" height="80" as="geometry" />
        </mxCell>
        <mxCell id="FbaqpglJVMi_n5HGXFX3-10" value="" style="endArrow=classic;html=1;rounded=0;exitX=1;exitY=0.5;exitDx=0;exitDy=0;strokeColor=#FF0000;entryX=0;entryY=0.5;entryDx=0;entryDy=0;" parent="1" source="FbaqpglJVMi_n5HGXFX3-4" edge="1" target="FbaqpglJVMi_n5HGXFX3-5">
          <mxGeometry width="50" height="50" relative="1" as="geometry">
            <mxPoint x="-848" y="159.99" as="sourcePoint" />
            <mxPoint x="-818" y="160" as="targetPoint" />
          </mxGeometry>
        </mxCell>
        <mxCell id="FbaqpglJVMi_n5HGXFX3-12" value="" style="endArrow=classic;html=1;rounded=0;entryX=0;entryY=0.5;entryDx=0;entryDy=0;strokeColor=#FF0000;exitX=1;exitY=0.5;exitDx=0;exitDy=0;" parent="1" target="KngnvmtrA6OP-5YAWjl_-7" edge="1" source="KngnvmtrA6OP-5YAWjl_-4">
          <mxGeometry width="50" height="50" relative="1" as="geometry">
            <mxPoint x="-310" y="160" as="sourcePoint" />
            <mxPoint x="-270" y="280" as="targetPoint" />
            <Array as="points">
              <mxPoint x="-290" y="160" />
              <mxPoint x="-290" y="240" />
              <mxPoint x="-640" y="240" />
              <mxPoint x="-1000" y="240" />
              <mxPoint x="-1000" y="320" />
            </Array>
          </mxGeometry>
        </mxCell>
        <mxCell id="fjiwsdt_9cLcJGBCS1oQ-11" value="Duración total = 55 d&lt;div&gt;&lt;br&gt;&lt;/div&gt;&lt;div&gt;Camino crítico = 55 d (5 h/d)&amp;nbsp;≈ 11 sem&lt;/div&gt;" style="text;html=1;align=left;verticalAlign=middle;resizable=0;points=[];autosize=1;strokeColor=none;fillColor=none;" parent="1" vertex="1">
          <mxGeometry x="-1000" y="450" width="230" height="60" as="geometry" />
        </mxCell>
        <mxCell id="fjiwsdt_9cLcJGBCS1oQ-12" value="" style="endArrow=classic;html=1;rounded=0;exitX=1;exitY=0.5;exitDx=0;exitDy=0;strokeColor=#FF0000;" parent="1" edge="1">
          <mxGeometry width="50" height="50" relative="1" as="geometry">
            <mxPoint x="-1040" y="494" as="sourcePoint" />
            <mxPoint x="-1000" y="494" as="targetPoint" />
          </mxGeometry>
        </mxCell>
        <mxCell id="fjiwsdt_9cLcJGBCS1oQ-13" value="" style="endArrow=none;dashed=1;html=1;rounded=0;" parent="1" edge="1">
          <mxGeometry width="50" height="50" relative="1" as="geometry">
            <mxPoint x="-1060" y="520" as="sourcePoint" />
            <mxPoint x="-1060" y="80" as="targetPoint" />
          </mxGeometry>
        </mxCell>
        <mxCell id="fjiwsdt_9cLcJGBCS1oQ-14" value="" style="endArrow=none;dashed=1;html=1;rounded=0;" parent="1" edge="1">
          <mxGeometry width="50" height="50" relative="1" as="geometry">
            <mxPoint x="-270" y="520" as="sourcePoint" />
            <mxPoint x="-271" y="80" as="targetPoint" />
          </mxGeometry>
        </mxCell>
        <mxCell id="fjiwsdt_9cLcJGBCS1oQ-15" value="" style="endArrow=none;dashed=1;html=1;rounded=0;" parent="1" edge="1">
          <mxGeometry width="50" height="50" relative="1" as="geometry">
            <mxPoint x="-270" y="520" as="sourcePoint" />
            <mxPoint x="-1060" y="520" as="targetPoint" />
          </mxGeometry>
        </mxCell>
        <mxCell id="fjiwsdt_9cLcJGBCS1oQ-17" value="" style="endArrow=none;dashed=1;html=1;rounded=0;exitX=0;exitY=0;exitDx=0;exitDy=0;" parent="1" edge="1" source="KngnvmtrA6OP-5YAWjl_-1">
          <mxGeometry width="50" height="50" relative="1" as="geometry">
            <mxPoint x="-300" y="80" as="sourcePoint" />
            <mxPoint x="-1060" y="80" as="targetPoint" />
          </mxGeometry>
        </mxCell>
        <mxCell id="KngnvmtrA6OP-5YAWjl_-1" value="" style="shape=image;verticalLabelPosition=bottom;labelBackgroundColor=default;verticalAlign=top;aspect=fixed;imageAspect=0;image=data:image/png,iVBORw0KGgoAAAANSUhEUgAABuQAAAVACAYAAACwVz6RAAAAAXNSR0IArs4c6QAAAARnQU1BAACxjwv8YQUAAAAJcEhZcwAAHYcAAB2HAY/l8WUAAM0ESURBVHhe7N15mJ11ff//VzIMk20mK5NkCCFAMgRRAgmymCigQsUNqrWK3yIV/Ip1qVYF21q1llIrLtWiVv0VraJitVBAFL9RwCUURQIEi8AQIITsZJ9sQzIzvz8mE+bcmexzZn08rivXlfv9uc/JZIbW6/Dk87kHtba2tgYAAAAAAAAoi8HFAQAAAAAAANB1BDkAAAAAAAAoI0EOAAAAAAAAykiQAwAAAAAAgDIS5AAAAAAAAKCMBDkAAAAAAAAoI0EOAAAAAAAAykiQAwAAAAAAgDIS5AAAAAAAAKCMBDkAAAAAAAAoo0Gtra2txSHdo6mpKStXriyOOzVy5MiMHDmyOIZeadFTS4sjoBtMmHhEhgw5vDgGAAAAAHqYIFdGixcvzrp167Ju3bo888wz2bJlS1asWJFly5YVbz0gdXV1mTBhQoYNG5ajjjoqo0ePzujRozN+/PhUVVUVb4eyW/TU0tzzP7/PA/c/nqefWl1cBrrR0ceMyykzp+XkU+pzwguOLS4DAAAAAD1AkOsiixcvzpNPPplnnnkmTz755CFHt4PVHuuOP/74HHvssSIdZbXoqaX5zrd/mt8vWFxcAnqBo48Zl7e89ZWZOeuE4hIAAAAA0I0EuYPUHuAee+yx3H///cXlXqW+vj4veMELctxxx6W+vr64DAds/frG/Mc3fpR75j1WXAJ6oRfNmJx3XH5BJkwYV1wCAAAAALqBILefmpqa8uijj+ahhx7KggUL0tjYWLylz5gzZ07q6+szffp0z6XjgK1YsTqf+Oh1Wb9uS3EJ6MVGjR6Wy9/9ervlAAAAAKAHCHJ70THCzZs3r7h8QDZs2JAdO3bsCnnr169PU1NTyfqiRYs6vCKpra3NxIkTd11XVVVl1KhRSZLq6uocdthhGTFiRCoqKjq86sDU19fnla98ZaZPn+5oS/bp/vmP5NNXf7843mXr1sasXbc0a9YtSZI82vA/xVuAMphe/5IkSU11bcaOmZTqEWOKt+zylx/848yec3JxDAAAAACUkSDXiVWrVuXXv/517rnnngPeCbd58+Zs2rQpGzduzNq1a7N8+fKsWrWqeFuXag93Y8aMydChQzN69OgMHz68eNs+nXfeeXnRi17kWEs6tWLF6rz/3dcWx0mS9RtW5uFHf5mlyx4tLgE94Mi66Tl+2pkZN+ao4lKS5CMffYudcgAAAADQjQS5DhYsWJCf//znaWhoKC7t0ebNm7Nu3bqsXr06ixYtKnt8OxAzZszI+PHjM3r06AM6mrKuri6vetWrcvLJJ9s1R7LzmXEf+dBXdjumsrl5Rx5+9Bd2wkEvdeyUmTnpxFfk8MOHlsxHjR6WT159mWfKAQAAAEA3GfBBrqmpKffcc09uu+22/doN19zcnNWrV2f16tV5/PHHe1WA25va2tpMmTIlEydOzLhx4/brmMvq6uq84hWvyEte8pIDCnr0P1/4/Pdyz7zHSmZbtzbm4Ud/mScX3V8yB3qXMaOPzOzT/zRDh1aXzI8+Zlyu+dz7SmYAAAAAQHkM2CB3ICGuPcItX7489957b3G5T5oxY0amTJmy33HuvPPOyytf+UphbgBa9NTSfORDXy+ZNTfvyAMP/VSMgz5izOgj87KXvHW3nXKOrgQAAACA7jHggtyBhLgNGzZkyZIlfWon3ME47bTTctRRR2Xs2LHFpd0IcwNPZ7vjHnr4546phD7m2Ckzc+opry2ZHX3MuPzD1ZdnyJDDS+YAAAAAQNcaUEHut7/9bX74wx/uNcS174ZbsGBBFi1aVFzu16ZMmZL6+vocddRRe901V11dnde+9rU588wzPWOun+tsd1zjprW5/WdfKpkBfcNZs/8s42uPLZnZJQcAAAAA5TcggtzixYvzzW9+M8uWLSsu7dLc3JxnnnkmDz74YL/eDbc/amtrM23atEydOnWvwa2uri4XXnhhZsyYUVyin7jl5l/ke9++q2R2929/kKXLHi2ZAX3DmNFH5pyXXpKKisN2zc591cl5xzv/uOQ+AAAAAKBr9esg19TUlB/84AeZN29ecWkXIW7vZs+evc8wN3PmzLzlLW9xjGU/9I+fvC6/X7B41/XWrY350U//peQeoG857+WXZ9TI8SWz/7zpkyXXAAAAAEDX6rdBbsGCBbn++uv3eDylEHdg9ifMXXTRRTn77LOLY/qwN7/hEyXXK1c9mV/e/Z2SGdC3zJxxfqYe++KS2Re/8r5MmDCuZAYAAAAAdJ3BxUFf19TUlOuvvz5f+cpX9hjjlixZkh/96EeZO3euGLef7r777tx+++1ZtGhRmpubi8tJkhtuuCGf+9znfE/7iUVPLS2OsvLZJ4sjoI/ZsnVDcZRtW5uKIwAAAACgC/WrINfQ0JCPfvSjezyicsOGDZk7d25+8pOfiEYHYdWqVZk7d27uuOOOrFmzpric7PwZXHPNNfntb39bXAKgF3i04X+Ko6xdu7E4AgAAAAC6UL8Jcrfffns+97nPdborrrm5OQ8//HD+8z//M4sWLSouc4AWLVqUG2+8Mb/97W/T1LT7rorGxsZ84xvfyPXXX9/pOn3XqmefLo6AfmDNmt13zQEAAAAAXafPB7kNGzbkc5/7XG6++ebiUpJkzZo1+dGPfpS77767uMQhWrBgQW6//fYsWbKkuJQkmTdvXv75n//ZbsR+ZO263Y+xBAAAAAAA9q5PB7nFixfnqquuSkNDQ3Epzc3NefDBB3PjjTcKQmW0atWq/OQnP9njbrlly5blmmuuyYIFC4pLAAAAAAAAA0KfDXILFizI1Vdf3ekRlRs2bMgdd9yRe++9t7hEmbTvluvs2XKNjY35yle+kttvv724BAAAAAAA0O/1ySB3++235ytf+UpxnOx8vplnxfWMVatW5cYbb8zDDz9cXEqS3Hzzzbnxxhs73UkHAAAAAADQX/W5IHfjjTd2+ry49iMq586dW1yim91999351a9+1Wl4mzt3br70pS91ugYAAAAAANAf9Zkg19TUlK997WudBrfNmzfn7rvvdkRlL/Loo4/m9ttvz+bNm4tLaWhoEOUAAAAAAIABo08EuaampnzpS1/K/fffX1zK5s2b87Of/SyPPvpocYketmrVqnz3u9/NypUri0uiHAAAAAAAMGD0+iDXHuMaGhqKS1m5cmW++93vZtWqVcUlepFbbrklS5YsKY5FOQAAAAAAYEDo1UFuXzHulltuKY7ppX7yk5/k4YcfLo5FOQAAAAAAoN/r1UFOjOtf7r77blEOAAAAAAAYcHptkLvxxhs7jXEPP/ywGNeHiXIAAAAAAMBA0yuD3I033pi5c+cWx1myZEnuvvvu4pg+Zm9R7gc/+EFxDAAAAAAA0Kf1uiC3YMGCTmPcypUr85Of/KQ4po/aU5SbN29ebrzxxuIYAAAAAACgz+pVQa6hoSFf+cpXimPPjOun7r777jz++OPFcebOnZsFCxYUxwAAAAAAAH1Srwlyq1atyte//vXiOBs2bBDj+rG77rorK1euLI7zla98JYsXLy6OAQAAAAAA+pxeEeSamppy/fXXp7GxsWS+efPm3HXXXSUz+p9bbrkla9asKY7zr//6r2lqaiqOAQAAAAAA+pReEeRuu+22NDQ0lMyam5tz9913Z9WqVSVz+qdf//rX2bx5c8mssbExX/rSl0pmAAAAAAAAfU2PB7kFCxZk7ty5xXHuu+++LFq0qDimn1q1alXmz5+f5ubmknlDQ0N+8YtflMwAAAAAAAD6kh4Nchs2bMj1119fHOfxxx/PggULimP6uUcffTS///3vi+PccMMNnicHAAAAAAD0WT0a5L7//e/v9ty4NWvWeG7cAHbvvfdmyZIlxXG++c1vep4cAAAAAADQJ/VYkPvFL36R+++/v2TW3NycX//61yUzBp6f/OQnuz1PbtmyZbnzzjtLZgAAAAAAAH1BjwS5DRs25LbbbiuOc99992XVqlXFMQNQZ8+Tu/nmmx1dCQAAAAAA9Dk9EuQ6O6pyyZIlnhvHLo8++miefPLJ4tjRlQAAAAAAQJ/T7UFuwYIFux1V2dTUlPvuu69kBnfddVc2bNhQMlu2bFnuueeekhkAAAAAAEBv1q1BrqmpKddff31xnAcffNBRlXTqt7/9bXGUG264YbdQBwAAAAAA0Ft1a5C75557djuqcs2aNY6qZI8WLVqURYsWFce59dZbiyMAAAAAAIBeqduC3IYNG3LDDTeUzJqbm/PrX/+6ZAZFc+fO3e25cfPmzcvixYtLZgAAAAAAAL1RtwW5n//858VRnnnmGUdVsl8eeeSR4ii33357cQQAAAAAANDrdEuQ27BhQ+bOnVsya2pq2m0Ge3Lvvffu9ty4+++/3y45AAAAAACg1+uWINfZ7riFCxcWR7BXjz76aHFklxwAAAAAANDrlT3I7Wl33N13310yg31ZsGBBVq5cWTKzSw4AAAAAAOjtyh7k7I6jKy1YsKA4sksOAAAAAADo1coa5OyOo6stWrTILjkAAAAAAKBPKWuQe+CBB4oju+M4ZIsWLSqO8rvf/a44AgAAAAAA6BXKGuRuu+22kmu74+gKCxYsyIYNG0pmc+fO3W0GAAAAAADQG5QtyC1YsCCNjY0lM8cK0lWeeuqp4qjTHZkAAAAAAAA9rWxB7je/+U3JdXNzcx5++OGSGRyse++9N01NTSWzX/7ylyXXAAAAAAAAvUFZgtyGDRty//33l8xWr16dVatWlczgUBR3XC5btiwNDQ0lMwAAAAAAgJ5WliD3P//zP8VRHnvsseIIDklnx1b+/ve/L44AAAAAAAB6VFmC3L333lty3dTUlEcffbRkBodq0aJFWbNmTcls7ty5ux1lCQAAAAAA0JO6PMitWrUqy5YtK5kVjxaErrJixYriSPwFAAAAAAB6lS4PcvPnzy+OOj1aELrC3Xffnebm5pLZQw89VHINAAAAAADQk7o8yBWPq9y8eXMWLVpUMoOutHr16pLrefPmlVwDAAAAAAD0pC4Nchs2bNjtuMridd9UlbHHvSizZs3KrFkvynFjq4o3HKAjctxJMzNr1qzMPGFSDv7duup9+rbly5cXR2loaCiOAAAAAAAAekSXBrnOnt3VWSyBrtTZDswnnniiOAIAAAAAAOgRXRrkiruSmpqaOo10PJsnHro/8+fPz/2PLElTcXm/ddX79G2rVq3Khg0bSmbFo1MBAAAAAAB6SpcGuQULFpRcr1+/vuQaymXVqlUl18uWLdst0gEAAAAAAPSELgtyq1atSmNjY8ls9erVJddQLp0djdrZUZYAAAAAAADdrcuC3FNPPVUcZenSpcVRP1OdSSecklmzZmXWzBMyaeSEHF1/Yk6ZNattNmtWZp10Qo47ekKqS153RI47aWZmzZqVmSdMSlXJWpLKsZl0bH1OPKXD+8w6OSfWH5tJY4d2uHEf71M9IUcfV3yfmTnphKk5ekJN8e4+7dFHH01zc3PJbNmyZSXXAAAAAAAAPaHLglxnz48bUDuUBg3JEccemXHVQ0q/qZXDMmpcXY457ohUdpzvQeXYKTnxhVMyfnR1hpS8UUWGVI/O+CnTUr/PmFaZ6gnH5cSpR2bcqOL7DErlsJEZd+TUnFRfVwiFfdumTZtKrv/whz+UXAMAAAAAAPSELgtyTz75ZMn1wHt+3OAMHtycbRtXZtFD8zN//h+yaOWmbE/aItio2tTV7CPJVR6RyUeO2RnQWrN987OdvFdlqifWZVL1Xt6renwmTRy18306fk0PpWHpmmzZ3tr2NVVP2O9Q2BesW7eu5LoYiQEAAAAAAHpClwS5pqam3Y4H3LhxY8l1/9ea7euXpuHxJVmzPUm2Zs2SZ7KqccfO9cMzrGZI6UsKKseOTnXloCRJy5ZVeerRxR3ea3GWrX+u7cbBQzNyzIiS1z5vWCZMHJthO2PclpVP5eFdX9P2NK5YlEeeWpUtLdkZ5UZnbD8pcitXriyOsnjx4uIIAAAAAACgW3VJkOsshKxdu7Y46ue2Z/P6jTt3sbXbknVbnktryWxPhmVszdBUJEl2ZPO6tWksWd+a1U/8PvPnz8/8+Q/k4adLd4M9b3iGD2l7lzRvybqVG4o3JI0rs3TttrbfVwxNzdhhxTv6pOXLlxdHnc4AAAAAAAC6U5cEuc6ix4IFC4qj/q11R5o2NRWnB6AqVZU7fxytz2XLui3FG/ZPVVUOP6xtl11r05asKy2EO23P1qbtaU7ank03fHjxhj5p1apVaW5u+1u1G3hhGAAAAAAA6G26JMgVo0dT06GEqYHqsBxW0RbSusP27c1pKQ77gU2bNpVcO7ISAAAAAADoaV0S5IrRY9u2ncchcgB2ZEfz/h1u2RUqKyt2/vBb07yj/Tl3fV9jY+lBnytWrCi5BgAAAAAA6G5dEuSKu5KKUYT90ZSm7Tv3rA06PMNGd/Jct5qjc+KsWZk1a1ZmnXh0aorrSdLUlOd2tIW9QVXDMrqyeEOSVGZoVeXO59W1ZHs/2tG4oxAXly1bVnINAAAAAADQ3bokyDU0NJRcF6MI+2NL1mzcuvO5bodl+OgxqS5Zr0zN6BEZkiRpybZNG7OxZL3d5mzetvM5ahXDMrZuXHZrctXjc+SYtndKS1O2bO70QXN90sqVK4ujbNiwoTgCAAAAAADoNocc5Dp7Xtz69euLI/bD9jXr0ri9bXfb4GHjMnnapIytTJKhGTvp2EwZ1x7RtmbD2tJdic/bkhXL12RLS5JUZMi4Sanf9T6VqZ4wJSccU5thg5OkNds3rsnKxv4T5DozUIPc1q1bd3u+IwAAAAAA0P0OOch1tiOps0jHftj+bBYvXZ3N21vbYlrN+Ew5aVZmzXpBpowfsXOn2/Y0Ll+WJXuLaI0rs2T5+mxrj3K73uek1B85NsMqB7XFuMYVeeqJZ7OXd+pzFixYUBwNWEOHDs2ll16aL33pS8IcAAAAAAD0oEMOcp0ZqDuSusL2NYvz6CNPZ+W6xp1BrV1ztjWuy8pFj6dhReeHVT5vexpXPJGHFy7N6vXF92nN9i0bsnrpwjzUsCwD4Wl/Tz75ZHE0YFxxxRV53/vel7FjxwpzAAAAAADQQwa1tra2nZF4kBYvXpyrr766ZPb1r3+95Bq60zvf+c6S64suuihnn312yWwgufDCC3PLLbfsur722mvz1re+NWPGjCm5r2jRU0vzkQ+V/t/yD/77H0qugb7pT//44yXX73jX+Tn3vDNKZgAAAABA1znkHXIDefcRvZMdmqWuuOKKkms75gAAAAAAoHsdcpADerfZs2fnggsuKI6FOQAAAAAA6CaCHP3eY489VhwNOMVdch0JcwAAAAAAUF5dHuQcFwi9z552yXUkzAEAAAAAQHl0eZADeqe97ZLrqD3M3XDDD4pLAAAAAADAQRDk6PfuuuuuDBo0aMD/mjNnTvFbs1ff/tZ/FUcAAAAAAMBBEOQAAAAAAACgjLo8yB122GHFEQAAAAAAAAxYXR7khg8fXhxBj3rNa16T1tbWAf/r2muvLX5r9uiKK67Iv33tM8UxAAAAAABwELo8yEFvc9RRRxVHA87atWvzvve9rzjezRVXXJHHHnss11xzTaYcfXRxGQAAAAAAOAiHHOSGDh1aHEGPcmzq7r73ve8VRyU6hrj6+vriMgAAAAAAcAgOOchNnDixOIIe5djUUnvbHSfEAQAAAABA+Q1qbW1tLQ4PxOLFi3P11VeXzH77299mwYIFJbNDV5nqCXWpHT0yo4ZVPj9u2ZbGjZuycdWyrGjc3vEFu1SOnZTJtWNKXteyrTEbN23MqqdXpLHk7o4qU3N0faaNG5LmxqV5uGFFOvsTKifU58Qjq1OxfX0WPfRE1hRvKDig+2uOzonTxmVIc2OWPtyQFduTZGjGTpqQUdXVpd+LbM+W9Ruybo/fi5pMOLo2o0fWZFjloF3TfX4vKsdm0lGjUz2i9HXZviXrN6zbw+tG5+gTp2TckL0135ZsWbkwjyzZ/dWH4p3vfGfJ9aWXXprTTz+9ZDaQfOlLX9otyF1xxRV5xzvesdcIt+ippfnIh75eMvvBf/9DyTXQN/3pH3+85Pod7zo/5553RskMAAAAAOg6e6sl+2XIkCHFURlUpnrScZl65LhCgEoyeEiqR43LkVOn5eixxeMzK1M9YVpOmDJ+t9cNHlKdUeOOzNQTp2Rs4S2fNyKjRxyepCXbm5o6jXGpnpSpE6tTUZzvyQHdX5ma0SMyJEm2N2XL9rRFtfppmTK+NDC23z9s1LgcWX9C6ifUFNZGZtIJx+bIcSNLo9q+vhfVdak/4eiMH73761I5LKPGHZn6k6ZlQnXhhZVVqao85H+8DtiUKVOKowG9i7O4O86OOAAAAAAA6H6HXExqa2uLo4wYMaI4OjTV4zPpiOFtX2zLtmxcuSgPzZ+f+Q8tysqN29KSJIOHZkzt2FR3fF1NXSYfWZPKJNm+OWuWPp758+dnfsPSrGmrWxk8ZEyOnHxE2z1FNTUZMWRwkueyad2m4moqx07O9GNqM2w/v4sHen/HILht08ZsTGWqJ9Vl4s741bKtMavb/07zH8/SNZt3RsPKVE+sy6Rdkawy1ZMm5ohhbRmwZdvGrFz0h8yfPz8PLVqZjduakySDh4xK7fiRO1+Ttog3qTbVlYOSNGdb4+osbXhot+9hKmsycdL4wvd+eIZUZOcuuIadX2Px1wNdvjtu5MiOXz/tz44T4gAAAAAAoOfsdxo6EF37DK/K1IwZuTNi7Ujj8qfy+JI1beFp+5oseXxJnt2yMygNG5kxNe0RalgmTBjVtrssz2X9sqezaMXGtqXGFVm0cHnWb29NMiiV1aN33xmWpHJYVVuo27Yp6zZ23B83NGMnHZ8TphyR4cVdY5060Pt32rXLrD0IjsiYkUPbfmjNjVne0JCn2/9O2ZgVi57IotXb2i4HD83IMe1htPi6x7NkzdYkyfY1S/L44tXZ0pIkFRk2clR27a2rGZWROyNec+OKNDQ8/fxRmI0rsuiRZ7J6W0uy2/c+qRp6eA5LkjyXLRt3fk3doKqqqjjK+PHji6MBYe3atVm8eLEQBwAAAAAAPaxLgtzMmTNLrocOLR4deSiGpGbY4W2/bd6ajWu2FNY3ZOW6LWlLcoelqv0Yx8qa1AxrS0LZtjHPrm4LULts35am7Tsfnze4Ioft9p0YlrE1Q1OR1mzftiXt2SvVdak/6YRMGT9i5867pjS1NanOHej9HVSOrcmwiravddPG7R127CXNWzZmzW5naG7PxnWb0pa/Bqdq2PBUJUnV8Ayr2svrGtdm3eYdbb+vrErbt7DDcZnZkS0bN3ZyZOemrNv03M7fH55hNe3Hlw7L6GGHZ1CSNG9P09bdX1kuo0aNKo46jXQDwZgxY4Q4AAAAAADoBXbLUAdj2LBhJddd+1y5IanauaustWlL1nXSdrav25Km1iQ5LMNq2o+oXJGGB3cejfjw088HtXaVz79vmrZkY1NxvT3oNWfb5s3Pzw8fmiGVg5Jsz5Y1S9Pw0Mpsbd4Z9jpzoPfv0h4Ek+Ztm9u+/o1P5+Gdxz0+2LCik0CWpKk5LcW3H1GVtr9qS5q2tB9r2dGWrNvyXFqTpGJoasYOa4t7Tz+882jJBWlYUQyhSbI9Tc0tba8r8fzz4/b0MyuXYgwWowAAAAAAgJ7WJUHuqKOOKrnu0ud4VVXl8MMGJWnNjueaUuxmSZKmpjy3oy0LDa44bB9/qcpUTzg69fVHZlTloLbjLFeu2i3Y7dqdVtyV99zmbFi/OksbHskji1Zkn09AO9D72+0Kgnvanda5ytHDUtUhvjWVHB+5I89tbd/RVqpp63Np2yM3OBWHtR1TuW8ddsJ1PJpy11GbLXmu+fBMOuGkzJo1a9evU06sz7GTxnb+3L5DVIzBnT3jEAAAAAAAoDvtvV3tp9GjRxdHmTJlSnF0cKoqMvgAHrs2qLIq7U9OK1WVsce9KLNmnZT6I8elekhFWrZtzMpFC/NE8TjLVGZoVWXb7rTiEY+NK/L0Ex2epbYvB3p/u6FVqewsCO7VyIwfPSxtOa39uXOVqaoYvDOa7Y9Bqazazx2O1WMyenj7saAdnrNXMzxDKtJ2bGb16IxqP0Z0p8FDqjN6/NE5ob4u1SUrh64Yg4uxGAAAAAAAoLt1SZCbOHFicdR1O5MqD9sZmA7V4Rl6+M54tNPgITUZP/nYHDehpmSejMjoEYfv5YjHcnv++W37f+RjZaonTcwRwyqStGb7+lVZtnF7ksGp3P0BeV1gZCZNGpdhg1PYZViZmhFDdu1+a4uef9h59OX8zH9oUVZu3JaWDEpl9YQcc9wRXbZTbvr06cVR6urqiiMAAAAAAIBu1SWlprP4NmrUqOKohzVmySMP7ApDDy16Npu3tyaDh2TUkUfnuHEdnj1WU5MRQwaXHsPYrUqDYKfHdJaoTPWEKTlm/PAMTtKybW2WLn62jCGxJhPqj874tjM9s2318izetcuw47Pn5ueBhx/PkjUddiBuX5Mljy/Js1ua23bjVY/O2C4qcmPHji2OMn78+OIIAAAAAACgW3VJkEuSmTNnllx3dozlQdm+I83FWRfYvmZxHl20Jm257fCMGl+b9n1yVTXDUpXCMYzdqWp4hlW1BcG2Yyf3ZmeMO7KmbafZ9o1Zvnhph2M2W7J9R0vJKw5NTSbUT8mR1ZVtO/EaV2Xx06sPMP5tycYtO19RMTQ1Y4cVbzgoxeMqq6urd5sBAAAAAAB0ty4LcpMnTy65HjGi8ye5HbCm5rS0Fod71rq9KftKWLts3JhN23bGqsqqtD3qbFhGDzs8g9KSbZs27jyGsXtVjh6WqkH7EwR3j3FLn1pUeF7d9jQ1t2T/v4Wt2d60p12BxRi3Ik81LEtj8bZ96vg1DU7FYV1zKGkxAk+bNq3kGgAAAAAAoCd0WZArPquroqKi02d6HbCmpjy3ozXJoBx2eFXbzrWiqqocftigJElL847s/36wHWluv3lwRQ4bnKSyJjXDDmvbWda078Miu96wjK0Zmookzdub0uGwx1KVYzNpWn2m7oxxLdvWZNEjjxdiXJumrc9lR5LksBw+9PDicpKkaujhaXvCXkuad+y+J7Fy7KRMO/HYnTGuOdtWL84jBxXjyqO2tjbDhw8vmR1//PEl1wAAAAAAAD2hy4LclClTiqNMnDixODoI29K0vW0v1aCqYRnd2fPGRlSlclB2RbTtSVJzdE6cNSuzZs3KyfUT2naQ7WZIqtpemOx4LlubksqxNWl7NNrWbFyzpfiC8tsVBHdky8aNnR8FWT0hx9UflfE1QzI4rdm++dksbljU4ZjKgk1NafsWDk7VsOGdfC+qMqLqsLR9J3akqf04yWTnLrzjUj95fGqGVCTZns0rn0nDHo+pHJ2jTzwls2bNyqyT6zNh9z8sSWWqKgbv/PO65jl9nf3zd+yxxxZHAAAAAAAA3a7LgtzIkSN32yU3ZsyYkuuDsy0btzzX9ttOnzc2LBPGjtgZmTo8c63DcZQVw0dlfPXuZahyXE2GVw5qO35x88ZsTFVqhle17U7bsnHPgaucaoZnyN6CYHVd6o+py6i2m7Jt/bI89ejivX+tTZuzpWnn92JYTcYWvxWVozO2eufOuZJjMtuPxByVIYOTtGzL+qWL8uiSNXuIcUmyKes27e3nlaRyVI4YuXOv4z6P5dw/48aNK452O0YVAAAAAACgJ3RZkEuSF77whSXXY8eOLbk+ONuzce2GbGlJksNSPfGYTJs0ti3AVY7NpGnHZGL1zsMWt2zI2l1xZ1PWbtjadnzl4OE5YvLkTNgV5YZm7KRpqT9qVNv7tGzJ2lXrsz3DMmLIPnanlVVlakYMSeUeg+DITJpUm+r2iLh+aRqeWLEfx0Z2+F5UVGdi/bRMGjs0aT+Ksn5CqiuSpDlbNqx//rl51eMzaeLO59Pluax/5sk8sWJfT9Xb/ed13ISa55erJ2TK1IkZVTmo7T1XruqS5/QdccQRJdczZ84suQYAAAAAAOgpg1pbW9vOg+wCDQ0N+dznPlcye/DBB3PvvfeWzA7c0Iw7bmqOHtX588+SJC2bs3LhE1lS8gy1oRl79DGZPG7onsvj9k1ZuXRxlqzZ2nbM5bRxGZJtWf14Q57er51bR+S4k45qC0zb12fRQ09kTfGWEnu7f3SOPnFKxg1Jtq1elIefXlfyyspxx+WEo3dGxP3R8f0rj8hxJ+z8c/egZcvKLHxkyc7Atx/f8xKt2b7+mTz0xLM7d9ZNzuSJO3fWdWp7Nq9cmif2uttu/0yZMiXnnXdeyezSSy/N6aefXjLjwCx6amk+8qGvl8x+8N//UHIN9E1/+scfL7l+x7vOz7nnnVEyAwAAAAC6zh5zycE4+uiji6Mueo7c1qx+4tE0LF2d9SXPN0uS7dmyfnWW7hbjkmRr1jz9eBZ29rqWbWlctzKLHnmsLcalMjWjR2RIuu4YxQNWU5MRQwaXHr25S2WGDm/bPXdQtj+bJx5amKWrN2TLzmfyPb+2JetXL+0Q45JkSIYPadt5eOC2p3HFE3l44dKsXr+lENyas61xXVYuenwfR1/uv2OOOaY46nQGAAAAAADQE7p0h1ySXH/99Zk3b96u6+bm5lx33XUl90BX+j//5/9k+PDhu67r6uryiU98ouQeDpwdctB/2SEHAAAAAN2rS3fIJUl9fX3JdUVFRU477bSSGXSVKVOmlMS4JP55AwAAAAAAepUuD3LTp08vjrro2ErYXWdHU86aNas4AgAAAAAA6DFdHuRGjhyZOXPmlMzGjRuX2trakhl0hcmTJ5dc19XV+WcNAAAAAADoVbo8yCXJSSedVHJdUVGRadOmlczgUE2fPj1VVVUlM8dVAgAAAAAAvU1Zgtz06dNTXV1dMps0aVLJNRyq448/vjjKS17ykuIIAAAAAACgR5UlyFVVVeXMM88smY0cObLT58vBwaitrc24ceNKZjNnzszIkSNLZgAAAAAAAD2tLEEuSV760pcWR53uaIKDcfLJJ6eioqJkdsYZZ5RcAwAAAAAA9AZlC3K1tbWpr68vmY0fPz61tbUlMzgYEydOLLmurq7OjBkzSmYAAAAAAAC9QdmCXJK88pWvLI5y8sknF0dwQGbPnp2qqqqS2Wtf+9qSawAAAAAAgN6irEFuxowZqaurK5kdddRRdslxSKZOnVoc5ZRTTimOAAAAAAAAeoWyBrkkOeuss0quKyoq7JLjoHW2O+68887LyJEjS2YAAAAAAAC9RdmD3Jlnnpnq6uqSmV1yHKzOdsd1djQqAAAAAABAb1H2IFdVVbXb873skuNg2B0HAAAAAAD0RWUPctnDLrkpU6ZkypQpJTPYk9ra2kyfPr04tjsOAAAAAADo9bolyFVVVeVNb3pTcZxZs2YVR9Cpk08+ORUVFSUzu+MAAAAAAIC+oFuCXJKcfvrpqaurK5mNHTs2M2bMKJlBUWe7Kaurq3c7ChUAAAAAAKA36rYglyQXXXRRceRZcuzT6aefXhzlta997W7PkwMAAAAAAOiNujXI1dfXZ+bMmSWzqqqqnHfeeSUzaHfaaaftdixlXV1dzj777JIZAAAAAABAb9WtQS5J3vKWtxRHmTJlSqZPn14cM8DV1tbmRS96UXGct7/97cURAAAAAABAr9XtQW7kyJGdHl05a9as4ogB7qUvfWkqKipKZnPmzMnkyZNLZgAAAAAAAL1Ztwe5JDn77LNTV1dXMhs+fLijK9ll9uzZGTt2bMmsuro6f/qnf1oyAwAAAAAA6O16JMhlD8cOTpkyJTNmzCiOGWD2dITpO9/5zlRVVRXHAAAAAAAAvVqPBbnJkyd3enTlqaeemtra2uKYAWT27NmdHlVZX19fMgMAAAAAAOgLeizIZefRlcXIUlFRkXPOOadkxsBxwQUXZPjw4SUzR1UCAAAAAAB9WY8GuSS5+OKLU11dXTIbOXJkXv3qV5fM6P9mz56d8ePHF8f5y7/8S0dVAgAAAAAAfVaPB7na2tpcfPHFxXEmTZqU2bNnF8f0U9OnT8+JJ55YHOeiiy7K5MmTi2MAAAAAAIA+o8eDXJLMmDEj5513XnGc6dOnZ/r06cUx/cyUKVM6ja8zZ87M2WefXRwDAAAAAAD0Kb0iyCXJG9/4xk6fJzd79mxRrh+rra3N7NmzU1FRUTKvq6vLn//5n5fMAAAAAAAA+qJeE+SS5L3vfe9uz5OrqKjIrFmzUltbWzKn76utrc25556b4cOHl8yrq6vzF3/xF54bBwAAAAAA9Au9KshVVVXlyiuv3C3KDR8+POeee64o18+89KUv3S3GJck73/lOP2sAAAAAAKDf6FVBLjt3Tf3lX/5lcSzK9TMXXHBBxo4dWxzn3e9+925HlwIAAAAAAPRlvS7IJcnkyZPz7ne/uzgW5fqJCy64IOPHjy+Oc+GFF2bGjBnFMQAAAAAAQJ/WK4NcksyYMUOU62dqa2v3GOPOO++8nH/++cUxAAAAAABAn9drg1z2I8pNmTKluEQvVVtbm3PPPXePMe6Nb3xjcQwAAAAAANAv9Oogl31EuVe84hWZPn16cYlepj3GDR8+vLgkxgEAAAAAAP1erw9y2UuUq6ioyOzZs3PaaacVl+glpk+fnte97nViHAAAAAAAMGD1iSCXfUS5k08+Oeecc05xiR42e/bszJ49OxUVFcWlXHjhhWIcAAAAAAAwIPSZIJcOUa66urq4lGnTpuWCCy5IbW1tcYke8OpXvzonnnhipzHu3e9+d84///ziGAAAAAAAoF/qU0EuO6PclVde2WmUGz9+fM4991zPletBtbW1efOb35xJkyYVl1JdXZ13v/vdmTFjRnEJAAAAAACg3+pzQS47o8/HPvax1NfXF5cyfPjwzJ492xGWPeC0007L6173uowcObK4lOrq6lx55ZViHAAAAAAAMOD0ySCXJCNHjsx73/vezJkzp7iUioqKTJs2LW984xsdYdkNamtr8+pXvzonn3xyp0dU1tfX5+qrr/azAAAAAAAABqQ+G+SSpKqqKhdffHEuvfTS4lKSZOzYsXnd616X0047rbhEF5kxY0bOP//8To+oTJILL7wwH/rQh1JVVVVcAgAAAAAAGBD6dJBrd/rpp+eqq65KXV1dcSkVFRU5+eST8+Y3vzlTpkwpLnOQamtrc8EFF+T000/vNLZVV1fnQx/6UM4///ziEn3YsVNmFkcAAAAAAMA+9Isgl52B6K//+q87PcIyO4+4PO+883Leeec5OvEQnXPOOXnd616X8ePHF5eSJDNnztzjM/7o2w4/fEhxBPQxY0YfWRxl0iT/uwgAAAAA5dRvglw6HGH5oQ99KNXV1cXlJMmUKVNy/vnnZ/bs2cUl9mHGjBm55JJLMm3atE6fFVddXZ1LL700l19+eUaOHFlcpo8ZNbqmOEplpSAHfV3tEUcXRxk6dPedzgAAAABA1+lXQa5dfX19rr766j3ulquqqsqJJ56YSy65JDNmzCguUzBjxoy8+c1v3uPxlOmwK+70008vLtFHjRq1e9Q+Ytzu/yIf6FtqqnffDddZgAcAAAAAus6g1tbW1uKwP1m8eHG++c1vZtmyZcWlXTZs2JAlS5bk7rvvLi4NaDNmzMj06dP3ututuro6F198sbDZT33h89/LPfMe23Xd3LwjN976TyX3AH3L6171Vxk69PngfvQx43LN595Xcg8AAAAA0LX6fZBLkqamptxzzz257bbb0tjYWFzepampKQsXLhzwYW727NmZNGnSXkNcklx44YV5+ctfvsddc/R9d897MP/6+f8umS188ne5f8HtJTOgb5he/5KcdOIrS2YXvvHMXPR/XlUyAwAAAAC61oAIcu02bNiQn//855k7d25xqURzc3OWL1+eP/zhD1m0aFFxuV+qra3NySefnIkTJ+4zsM2cOTNvectb9hns6PvWr2/M5Zd+tmT23HNbc/OPP1MyA/qG8899b6pHjCmZffpz78yUY44smQEAAAAAXWtABbl2+xvm0uE4y8cffzyrVq0qLvd5p512Wo466qiMHTu2uLSbmTNn5vzzz8/kyZOLS/RjN3z3p7n5xntKZitXPZlf3v2dkhnQu82ccX6mHvviktmZc47PBz741pIZAAAAAND1BmSQa3cgYa65uTmrV6/O8uXLs2jRoj4d50477bRMnDgx48aNS0VFRXF5N0LcwLZ+fWM+8qGvZP26LSVzR1dC39HZUZWxOw4AAAAAus2ADnLt2sPcPffcs9dnzHW0Zs2arF27Nk899VSvP9ZyypQpOfLIIzNhwoSMGjVqvyJckpx33nl56Utfmtra2uISA8zP5v4m//7V3ePbosUP5d75NxfHQC8yc8b5OeboU1JRcVjJ3LPjAAAAAKD7CHIdNDU15cEHH8xPf/rTLFu2rLi8R01NTVm/fn02btyY5cuX59FHHy3e0q2mT5+esWPHZty4cRk1atQ+nwnXUV1dXc4666yccsopnhFHiS98/nu5Z95jxXHWb1iZ+x64LWvXLS0uAT1ozOgjc0L97BxZN724lBfNmJwPf+TiDBlyeHEJAAAAACgDQW4PFi9enN/97ncHtGuuow0bNmTbtm3ZunVrVq5cmaampi4PdVOmTMnIkSMzZsyYDB06NNXV1Qcd0ebMmZPTTz899fX1xSVIkmzb9lw+++nr8/sFi4tLaW7ekRUrF2bRMw9l6bKu/eccODBH1k3PlKNOyoTxU3fbFZcko0YPy6c/9+6MGlVdXAIAAAAAykSQ24f2kPbQQw9l3rx5xeUD1tzcnE2bNiVJduzYsd+xb+jQoRkyZEiSZMSIEft97OTezJkzJyeddFKmT59+QLvoGLjWr2/Ml774g06jXLvnntuajZtWp2nb5uISUEZVQ4Zn+NBRGTp0z6Ht6GPG5YNXXJQJE8YVlwAAAACAMhLkDlBDQ0N+//vf53//938P6FjL3qC6ujpnnnlmpk6dKsJx0LZtey7f+faP87OfPlhcAnoxx1QCAAAAQM8R5A7BqlWr8tRTT6WhoSFPPvlkrwt01dXVmTFjRurr63PMMcektra2eAsctPvnP5Lvf+/nefqp1cUloBcZNXpY/uTNZ+Xc884oLgEAAAAA3USQ60IbNmzIypUrs2zZsjzzzDNZtWpVGhoaireVRV1dXSZMmJDjjz8+dXV1GT9+/EE/Tw4OxM/m/iY/+3+/E+b6iQv++1e7fn/LH7+sZI2+pT3EvfRlM+2KAwAAAIAeJsh1g1WrVmXbtm1Zvnx5tm7dmq1bt2bx4uefwbVp06Y9hrv6+vqMGDFi1/W4ceMyduzYJMmxxx6bIUOG2PlGr7Bixer8/qGFefh/n8ymxq17fc4cvZcg13e9aMbkjKgemhNfeGwmTarNCS84tngLAAAAANBDBDkAdvneoHN2/f6trXeVrAEAAAAAcHAGFwcAAAAAAABA1xHkAAAAAAAAoIwEOQAAAAAAACgjQQ4AAAAAAADKSJADAAAAAACAMhLkAAAAAAAAoIwEOQAAAAAAACgjQQ4AAAAAAADKSJADAAAAAACAMhLkAAAAAAAAoIwEOQAAAAAAACgjQQ4AAAAAAADKSJADAAAAAACAMhLkAAAAAAAAoIwEOQAAAAAAACgjQQ4AAAAAAADKSJADAAAAAACAMhLkAAAAAAAAoIwEOQAAAAAAACgjQQ4AAAAAAADKSJADAAAAAACAMhLkAAAAAAAAoIwEOQAAAAAAACgjQQ4AAAAAAADKSJADAAAAAACAMhLkAAAAAAAAoIwEOYAB5K4r/ymL7/5dcXxAVjc8mbuu/KdsWbuuuAQAAAAAQCcEOYAB5LgLzs28OVfmRxe+64DDXHuIm3v8ZRkxeWKGjRldvAUAAAAAgE4Mam1tbS0OAei/fnThu9J4y2NJkuoLjs+MKy7L5NkvTpJ8b9A5u+57a+tdyc4Q9/t//36Wf+Znu9YuXHOTIAcAAAAAsJ/skAMYYGZccdmu3zfe8tged8x13BHXMcZNu/ZtYhwAAAAAwAGwQw5gAOq4S+5A2R0HAAAAAHBg7JADGIA67pI7EHbHAQAAAAAcOEEOYACaPPvFqb7g+OJ4n05864XFEQAAAAAA+yDIAQxQB7pLzu44AAAAAICDI8gBDFAHukvO7jgAAAAAgIMjyAEMYPu7S87uOAAAAACAgyfIAQxg+7tLzu44AAAAAICDJ8gBDHD72iVndxwAAAAAwKER5AAGuH3tkrM7DgAAAADg0AhyAOxxl5zdcQAAAAAAh06QA2CPu+TsjgMAAAAAOHSCHABJkhPef3HJtd1xAAAAAABdQ5ADINu2bcu//fiWbBnz/MzuOAAAAACAriHIAQxw27Zty0f/7uOZ9z+/yYN1LUmSpSdVZf22rcVbAQAAAAA4CIIcwADWMcYlye+qW7NlTPLLqi1517vfl2XLlhVfAgAAAADAARrU2traWhwC0P8VY1y74S3J5p3/ucb42iPy1a9cm7q6upJ7AAAAAADYf4IcwAC0pxjXGVEOAAAAAODQOLISYIDZW4xbt3ZNWlraniPXbuWqZx1fCQAAAABwCAQ5gAFkbzFu5YplefyxP+TpRU+IcgAAAAAAXUiQAxgg9hXjnn7qiSTJsytXiHIAAAAAAF1IkAMYAPY3xrUT5QAAAAAAuo4gB9DPHWiMayfKAQAAAAB0DUEOoB872BjXTpQDAAAAADh0ghxAP3WoMa6dKAcAAAAAcGgEOYB+qKtiXDtRDgAAAADg4AlyAP1MV8e4dqIcAAAAAMDBEeQA+pFyxbh2ohwAAAAAwIET5AD6iXLHuHaiHAAAAADAgRHkAPqB7opx7UQ5AAAAAID9J8gB9HHdHePaiXIAAAAAAPtHkAPow3oqxrUT5QAAAAAA9k2QA+ijejrGtRPlAAAAAAD2TpAD6IN6S4xrJ8oBAAAAAOyZIAfQx/S2GNdOlAMAAAAA6JwgB9CH9NYY106UAwAAAADYnSAH0Ef09hjXTpQDAAAAACglyAH0AX0lxrUT5QAAAAAAnifIAfRyfS3GtRPlAAAAAADaCHIAvVhfjXHtRDkAAAAAAEEOoNfq6zGunSgHAAAAAAx0ghxAL9RfYlw7UQ4AAAAAGMgEOYBepr/FuHaiHAAAAAAwUAlyAL1If41x7UQ5AAAAAGAgEuQAeon+HuPaiXIAAAAAwEAjyAH0AgMlxrUT5QAAAACAgUSQA+hhAy3GtRPlAAAAAICBQpAD6EEDNca1E+UAAAAAgIFAkAPoIQM9xrUT5QAAAACA/k6QA+gBYlwpUQ4AAAAA6M8Gtba2thaHAJSPGLdnR4yfkKOnHJfBg0v/e5HxtUfkq1+5NnV1dSVzus+6devy4IMLsuChh7JxY2N+fPv/K94ClNH42iNy6qyZObKuLi980YmpnzYto0ePLt4GAAAA9FKCHEA3EuP2TZTrXZ544ol85d++1uk/s0DPuujNf5LXvfY1Oe6444pLAAAAQC8jyAF0EzFu/4lyPe+JJ57Id7/3fTvhoA9452VvzxvecKEdcwAAANCLCXIA3UCMO3CiXM/57b335i8/8OHiGOjFxtcekauv+mRe9KIXFpcAAACAXkCQAygzMe7giXLd77rrvpmvX/fN4niXlpaWbNu6NU1N24pLQJkNHTYshx9etdv/T+zon6/+h5xzztnFMQAAANDDBDmAMhLjDp0o1332FuM2NW7Ms8+uzLMrVxSXgG42afKUjBk7LkOGDC0uJUn+9QufzemnnVYcAwAAAD1oz/95LQCH7Od33NFpjNu2basYt5+eXbki27ZuLY6zctWz+cEP/6s45iD99t57O41xzz3XlGeefip/+N8FYhz0EksWL8pDD9yXZ55+Ki0tLcXl/OUHPpwnnvC/MQAAANCbCHIAZfTa17wm77zs7cVxhgwZmhe8cEZxTCde8MIZGTZ8eHGcOS85I++6/J3FMQfhiSee6PSZcVs2b87Cxx7J8mVLiktAL7B82ZI88fijee65puJS/upDV2bbNkfLAgAAQG8hyAGU2WWXvb3TKDeiukaU24cXvHBGRlTXFMeZ85IzcvU//kOGDBlSXOIgfPd73y+OsmXz5vzvQ/dn06bG4hLQi6xbuyYLH3tktyi3ctWz+fkdd5TMAAAAgJ4jyAF0A1HuwIlx3eOJJ57Ij2//fyWz555ryqInHy+ZAb3Xpk2NefqpJ3Y7vvKqqz+ddevWlcwAAACAniHIAXQTUW7/iXHdp7PdcSuXL7MzDvqYdWvX5NlVuz/n8aabbi6OAAAAgB4gyAF0I1Fu38S47rNu3brddsdt2bzZM+Ogj3r6qSeyY8eOktktP7qt5BoAAADoGYIcQDcT5fZMjOteDz64oDjKmtWriiOgD1m/bm3J9cpVz+aJJ54omQEAAADdT5AD6AGi3O7EuO735JNPlVy3tLTYHQd93Lq1q4ujPPLoo8URAAAA0M0EOYAeIso9T4zrGUuXLSu5fu65ppJroO9Zt3bNbsdWbt60ueQaAAAA6H6CHEAPEuXEuJ503/z7S663btlScg30TTt2bC+5fqzh8ZJrAAAAoPsJcgA9bCBHOTGuZ61c9WxxBAAAAACUgSAH0AsMxCgnxgEAAAAAA4UgB9BLDKQoJ8YBAAAAAAOJIAfQiwyEKCfGAQAAAAADjSAH0Mv05ygnxgEAAAAAA5EgB9AL9ccoJ8YBAAAAAAOVIAfQS/WnKCfGAQAAAAADmSAH0Iv1hygnxgEAAAAAA50gB9DL9eUoJ8YBAAAAAAhyAH1CX4xyYhwAAAAAQBtBDqCP6EtRTowDAAAAAHieIAfQh/SFKCfGAQAAAACUEuQA+pjeHOXEOAAAAACA3QlyAH1Qb4xyYhwAAAAAQOcEOYA+qjdFOTEOAAAAAGDPBDmAPqw3RDkxDgAAAABg7wQ5gD6uJ6OcGAcAAAAAsG+CHEA/0BNRTowDAAAAANg/ghxAP9GdUU6MAwAAAADYf4IcQD/SHVFOjAMAAAAAODCCHEA/U84oJ8YBAAAAABw4QQ6gHypHlBPjAAAAAAAOjiAH0E91ZZQT4wAAAAAADp4gB9CPdUWUE+MAAAAAAA6NIAfQzx1KlBPjAAAAAAAOnSAHMAAcTJQT4wAAAAAAuoYgBzBAHEiUE+MAAAAAALqOIAcwgOxPlBPjAAAAAAC6liAHMMDsLcrNfPGZYhwAAAAAQBcT5AAGoD1FucMOO6w4EuMAAAAAAA6RIAcwQO0pynUkxgEAAAAAHDpBDmAA21uUE+MAAAAAALqGIAcwwHWMcu+/p2LXLzEOAAAAAKBrCHIAdLpTTowDAAAAAOgaghwAyc4oBwAAAABA1xPkAAAAAAAAoIwEOQAAAAAAACgjQQ4AAAAAAADKSJADAAAAAACAMhLkAAAAAAAAoIwEOQAAAAAAACgjQQ4AAAAAAADKSJADAAAAAACAMhLkAAAAAAAAoIwEOQAAAAAAACgjQQ4AAAAAAADKSJADAAAAAACAMhLkAAAAAAAAoIwEOQAAAAAAACgjQQ4AAAAAAADKSJADAAAAAACAMhLkAAAAAAAAoIwEOQAAAAAAACgjQQ4AAAAAAADKSJADAAAAAACAMhLkAAAAAAAAoIwEOQAAAAAAACgjQQ4AAAAAAADKSJADgD7md1/6Zhbf/bviGAAAAADopQQ5AOhjjjnvrMybc2V+dOG7hDkAAAAA6AMEOQDoY8bVH5uJV5ybxlseE+YAAAAAoA8Q5ACgD3rRO96y6/fCHAAAAAD0boIcAPRB7bvkOhLmAAAAAKB3EuQAoI/quEuuI2EOAAAAAHoXQQ4A+qjOdsl1JMwBAAAAQO8gyAFAH7anXXIdCXMAAAAA0LMGtba2thaHAAxM3xt0TnFEP1R9wfGZccVledMVHyqZr1u7Jo8/9oeSGdD3nHTKqRkyZOiu69ec/0f5+Mc+WnIPAAAA0L3skAOAAaZ9xxwAAAAA0D0EOQAYgKZd+7biCAAAAAAoE0dWAkAftmXtutw89g3F8R5Nu/ZtOfGtF2bYmNE5/SUvK1lzZCX0D46sBAAAgN7HDjkA6MMe/t7NxVGnpl37tly45qa8+L1vz7Axo4vLAAAAAEAZCXIA0EdtWbsuj7/v28VxCSEOAAAAAHqeIAcAfdTedscJcQAAAADQewhyANAH7Wl3nBAHAAAAAL2PIAcAfVBxd5wQBwAAAAC9lyAHAH1Mx91xQhwAAAAA9H6CHAD0MQ9/72YhDgAAAAD6EEEOAPqYE996oRAHAAAAAH2IIAcAfYwQBwAAAAB9iyAHAAAAAAAAZSTIAQAAAAAAQBkJcgAAAAAAAFBGghwAAAAAAACUkSAHAAAAAAAAZSTIAQAAAAAAQBkJcgAAAAAAAFBGghwAAAAAAACUkSAHAAAAAAAAZSTIAQAAAAAAQBkJcgAAAAAAAFBGghwAAAAAAACUkSAHAAAAAAAAZSTIAQAAAAAAQBkJcgAAAAAAAFBGghwAAAAAAACUkSAHAAAAAAAAZSTIAQAAAAAAQBkJcgAAAAAAAFBGghwAAAAAAACUkSAHAAAAAAAAZSTIAQAAAAAAQBkJcgAAAAAAAFBGghwAAAAAAACUkSAHAAAAAAAAZSTIAQAAAAAAQBkJcgAAAAAAAFBGghwAAAAAAACUkSAHAAAAAAAAZSTIAQAAAAAAQBkJcgAAAAAAAFBGghwAAAAAAACUkSAHAAAAAAAAZSTIAQAAAAAAQBkJcgAAAAAAAFBGghwAAAAAAACUkSAHAAAAAAAAZSTIAQAAAAAAQBkJcgAAAAAAAFBGghwAAAAAAACUkSAHAAAAAAAAZSTIAQAAAAAAQBkJcgAAAAAAAFBGghwAAAAAAACUkSAHAAAAAAAAZSTIAQAAAAAAQBkJcgAAAAAAAFBGghwAAAAAAACUkSAHAAAAAAAAZSTIAQAAAAAAQBkJcgAAAAAAAFBGghwAAAAAAACUkSAHAAAAAAAAZSTIAQAAAAAAQBkJcgAAAAAAAFBGghwAAAAAAACUkSAHAAAAAAAAZSTIAQAAAAAAQBkJcgAAAAAAAFBGghwADFCvOf+PSq6rqoaUXAP9Q01NdXEEAAAAdDNBDgBIkhxeVVUcAX3MiBHVGTJkaMls6tTjSq4BAACA7ifIAcAANXPmySXXhx12WEaPGVsyA/qWsUfUFkc5evLRxREAAADQzQQ5ABigZp5ySnGUcUeML46APmTkqNHFUaZNm1ocAQAAAN1MkAOAAaquri4nvmB6yWzkqNEZMcLzpqAvmlg3abfjKi96859kyBDPhwQAAICeJsgBwAD2hj++oOR68ODBmXLstJIZ0DeMn1hXHOV1r31NcQQAAAD0AEEOAAaw177mNbvtkhs2fHiOnXp8yQzo3V7wwhk5/PCqktlrzv+jHHfccSUzAAAAoGcIcgAwwF3+zncURxl3RG2OPsa/yIe+4AUvnJER1TXFcd5x2duLIwAAAKCHCHIAMMCdftppuejNf1IcZ/yEuhx/wguLY6CXGDGiOi88aWanMe5jH/1I6up2P8ISAAAA6BmDWltbW4tDAGBg2bZtWz76dx/PvP/5TXEpO3bsyJrVq/L0U08Ul4AeMu34F2TkqNEZPHj3/77unZe9PZfZHQcAAAC9iiAHACRJ1q1bl3+8+lOdRrkkaWlpyZbNm7Jx44Y079iRbdu2Zt3aNcXbgC52xPgJOazisBxeVZXq6pEZMnRopyEuSea85Ixc/Y//kCFDhhSXAAAAgB4kyAEAu2zbti3XfOZz+fHt/6+4BPRydsYBAABA7yXIAQC7ue3HP85VV3+6OAZ6ofG1R+Sjf/uRnH7aacUlAAAAoJcQ5ACATq1bty433XRzvn7dN4tLQC8wvvaIvPP/XppXvuIVjqgEAACAXk6QAwD2at26dXnwwQX59by7HWXZx73/nopdv//imc0la/QN42uPyMvPOStnnnlGZpx0khAHAAAAfYQgBwAckHXr1mXt2rXFMX3Ab6e+Y9fvT1/47yVr9H5jxozJ6NGji2MAAACgDxDkAAAGiO8NOmfX79/aelfJGgAAAADlM7g4AAAAAAAAALqOIAcAAAAAAABlJMgBAAAAAABAGQlyAAAAAAAAUEaCHAAAAAAAAJSRIAcAAAAAAABlJMgBAAAAAABAGQlyAAAAAAAAUEaCHAAAAAAAAJSRIAcAAAAAAABlJMgBAAAAAABAGQlyAAAAAAAAUEaCHAAAAAAAAJSRIAcAAAAAAABlJMgBAAAAAABAGQlyAAAAAAAAUEaCHAAAAAAAAJSRIAcAAAAAAABlJMgBAAAAAABAGQlyAAAAAAAAUEaCHAAAAAAAAJSRIAcAAAAAAABlJMgBAAAAAABAGQlyAAAAAAAAUEaCHAAAAAAAAJSRIAcA0E8svvt32bJ2XXF8wFY3PJnlD/5vcQwAAADAQRLkAAD6iWFHjM3NY9+Q333pmwcV5lY3PJm7rvynzD3+soycfGRxGQAAAICDJMgBAPQT4+qPzcQrzs3j7/v2AYW5jiFu+Wd+lmnXvi3Dxowu3gYAAADAQRrU2traWhwCANA3rW54MnOPv6xkNu3at+XEt16Ym8e+Ydfsra13ZXXDk/n9v38/yz/zs5L7L1xzkyAHAAAA0IUEOQCAfuauK/9pt8hWNPGKczu9Z9q1b8uL3/v24hgAAACAQyDIAQD0M53tkttfdscBAAAAdD3PkAMA6GfanyV3oDw7DgAAAKA8BDkAgH7oRe94S3G0Tye+9cLiCAAAAIAuIMgBAPRDB7pLzu44AAAAgPIR5AAA+qkD2SVndxwAAABA+QhyAAD91P7ukrM7DgAAAKC8BDkAgH5sf3bJ2R0HAAAAUF6CHABAP7avXXJ2xwEAAACUnyAHANDP7W2XnN1xAAAAAOUnyAEA9HN72iVndxwAAABA9xDkAAAGgM52ydkdBwAAANA9BDkAgAHgifWr82xd665ru+MAAAAAuo8gBwDQz/323nvzlx/4cO4b/3yQG/fyM0ruAQAAAKB8BDkAgH6sPcYlScOQ1jxb15pFx7Tm/X/7d1m2bFnxdgAAAADKYFBra+vz/6k0AAD9RscY165+26CsO6w1zx6WjK89Il/9yrWpq6sruQcAAACAriXIAQD0Q53FuM6IcgAAAADl58hKAIB+Zk8xrqWlJS0tLSWzlauezbve/T7HVwIAAACUkSAHANCP7C3GPb3oiTy96AlRDgAAAKCbCXIAAP3EvmLcsytX5NmVK0Q5AAAAgG4myAEA9AP7E+PaiXIAAAAA3UuQAwDo4w4kxrUT5QAAAAC6jyAHANCHHUyMayfKAQAAAHQPQQ4AoI86lBjXTpQDAAAAKD9BDgCgD+qKGNdOlAMAAAAoL0EOAKCP6coY106UAwAAACgfQQ4AoA8pR4xrJ8oBAAAAlIcgBwDQR5QzxrUT5QAAAAC6niAHANAHdEeMayfKAQAAAHQtQQ4AoJfrzhjXTpQDAAAA6DqCHABAL9YTMa6dKAcAAADQNQQ5AIBeqidjXDtRDgAAAODQCXIAAL1Qb4hx7UQ5AAAAgEMjyAEA9DK9Kca1E+UAAAAADp4gBwDQi/TGGNdOlAMAAAA4OIIcAEAv0ZtjXDtRDgAAAODACXIAAL1AX4hx7UQ5AAAAgAMjyAEA9LC+FOPaiXIAAAAA+0+QAwDoQX0xxrUT5QAAAAD2jyAHANBD+nKMayfKAQAAAOybIAcA0AP6Q4xrJ8oBAAAA7J0gBwDQzfpTjGsnygEAAADsmSAHANCN+mOMayfKAQAAAHROkAMA6Cb9Oca1E+UAAAAAdifIAQB0g4EQ49qJcgAAAAClBDkAgDIbSDGunSgHAAAA8DxBDgCgjAZijGsnygEAAAC0GdTa2tpaHAIAcOgGcozr6IjxE3L0lOMyeHDpfws2vvaIfPUr16aurq5kTvdq2bEtW9Y9lW2NS7J96+ps37KyeAtQRoMrR2RIzdGpOGxYho05LlUjJhRvAQAA+gFBDgCgDMS4UqJc77Nh+f1Z+9RPsm3D74tLQA+qHHZ0aibMzuijz0rlkFHFZQAAoI8S5AAAupgY1zlRrnfYsPz+PNvw/Wzf8nRxCehFKipHZcyxf5Ixk1+awYcNKS4DAAB9jCAHANCFxLi9E+V6TsuObVnywFezefU9xSWgF6uoHJWjz/ikoywBAKCPE+QAALqIGLd/RLnu17RpRZY99O/7PJ5yyIijUnHY0OIYKLPN6xuKo93UnfyRjJw4szgGAAD6CEEOAKALiHEHRpTrPk2bVuTp33wizdvXF5eSJKMmnJbqscdmxOjJxSWgGzVtWZctG5ZlzdLfZvu21cXlJMmEE/8yoyfPLo4BAIA+QJADADhEYtzBEeXKr2XHtjx972c73Rk3asJpGXfUi1NZNby4BPSwdcsfzrNP35XmHVuKSznq1L/PiCNOKI4BAIBeTpADADgEYtyhEeXKa/HvvtDpM+Pqjn9DRh4xtTgGepGmLeuyrOGn2bbpmZJ5ReWoHDPn06kcMqpkDgAA9G6l/+YDAID9tmzZsk5jXBIxbj89u3JFlj7zdHGclauezbve/b5s27atuMR+2vTsI53GuGNn/l8xDvqAqmGjc/SL3pghI44qmTdvX5+Vj/5XyQwAAOj9BDkAgINUV1eXd1729uI4SXLEEeOLIzoxYkR1xk/sfBfcR//2IxkyZEhxzH5a8YdvFkepO/4NqRo2ujgGeqnBFYfn6Be9MRWHDSuZNy7/WbasW1QyAwAAejdBDgDgEFx22ds7jXIjqmvyghfOKI7pYMSI6kw9/oQcfnhVcSn/+oXP5vTTTiuO2U8blt+f7VtKdx6OmnCanXHQBw2uODyTXvAnxXFWL7y5OAIAAHoxQQ4A4BCJcgdOjCuvtU/9pDjKuKNeXBwBfcSwmgkZPqq+ZLZ59T3Zvm19yQwAAOi9BDkAgC4gyu0/Ma68WnZsy7YNvy+ZjZpwWiqrhpfMgL5lzJEzi6NsWvVwcQQAAPRSghwAQBcR5fZNjCu/LeueKo5SPfbY4gjoY0aMnrzbs+Q2r32k5BoAAOi9BDkAgC4kyu2ZGNc9tjUuKY4yrGZCcQT0QdXjXlhyvX3LipJrAACg9xLkAAC6mCi3OzGu51QOGZfBFYcXx0AfVDmkpuS6eDwtAADQewlyAABlIMo9T4zrXlvWlD5T6vAhY0quAQAAgO4nyAEAlIkoJ8YBdKVhNXXFEQAA0EcIcgAAZTSQo5wYBwAAANBGkAMAKLOBGOXEOAAAAIDnCXIAAN1gIEU5MQ4AAACglCAHANBNBkKUE+MAAAAAdifIAQB0o/4c5cQ46Got2firL6eu5vJ89oEtxcUD0JJNC3+Xb3z8vRlUc2rbr/pP5LM33535K7YXbwYAAKAMBDkAgG7WH6OcGAddr2X5L/JX7/hmlhcXDsj2LP/VdXndzL/IZV/4zfPjFT/OFW97f0592T/nGw2bO74AAACAMhDkAAB6QH+KcmIcdLWWbFp4Z/7msmvyjRXFtQPTsvAn+fPXfi2/yBm58qvfyrL196V1431pbvhW/uMDZyQrbsllH7gl8ze3FF8KAABAFxLkAAB6SH+IcmIcdLXNabj13/K6mVfmmnmri4sHaH1+8e3/ytyMy9lX/UU+9tYTM3HnJ8DBE07MJR/5i3xmzrhk3u35wfyNxRcDAADQhQQ5AIAe1JejnBgHXatlxW/zt69+Y47/s2/mFzkjf/Pfn86njinedQAaH8//+/4jSU7Oxa+ZlhHF9eHjcuxRQ5I0ZsX6puIqAAAAXUiQAwDoYX0xyolx0PValjfkB/OSsz/wD7mv4V/yT2fV5bDiTQei+sX5dMN9ad34z7l06uHF1WTz6jz5zLYk03PWC0YXVwEAAOhCghwAQC/Ql6KcGAflMXjiqfnCL7+TO/7h1Zk1obK43IW2Z/kDd+azH7wqV8xLzr7q4vxpZ8EOAACALiPIAQD0En0hyolxUD6DJ5yQ154yrowf0rZk/hcvz6CaM1N31pW54q7j85lbvp4fvf/E3Y+zBAAAoEuV77MeAAAHrDdHOTEO+rrGPP2Hlc9frvhxrrjgyrznywuyvKXjfQAAAHQ1QQ4AoJfpjVFOjIP+YHze8LWb07rxvrRuvDeN91+TK+esz7f/5iN567UPZ1PxdgAAALqMIAcA0Av1pignxkF/NDgjpr48n/rXv8h5WZ1ffOz6/GDhc8WbAAAA6CKCHABAL9UbopwYB/3b4GNn5M2vGJdkaR5btqW4DAAAQBcR5AAAerGejHJiHAwAg4dmVO2QJI1Zsb6puAoAAEAXEeQAAHq5nohyYhz0fS0Lb8kf1ZyaQfVfzp2NLcXlNjvW5snfLEkyPi86qrq4CgAAQBcR5AAA+oDujHJiHPQPu46jXPHrfPeuldk9ybVk0+8fyI+fSjLnrJxTP6R4AwAAAF1EkAMA6CO6I8qJcdCPDD4yf/T2czIxC/OND381X5y/ukOU25yGu76f97z58/lFpubSd52TU4b7eAgAAFAuPnEBAPQh5YxyYhz0QTseSXY8ks/OODWDai7MJbeu7LBYmSNf/97c+eULMnHFj/PBc16VippTM6jm1AyqOSvHX/D5fHvFGbnyO/+cL75+og+HAAAAZeQzFwBAH1OOKCfGQX81PNMv/uvM/+W/5LoPnNFhPjVvu+qfcsf9n86nXz8lIzqsAAAA0PUGtba2thaHAAD0ftdd9818/bpvFsfZ1Lgxf/jfBcXxHolx/cvi330hm1ffs+t6+Kj6TH7hhSX3AH3Tlo0r8vRD3y6ZnXD+f5ZcAwAAvZMdcgAAfVRX7JQT4wAAAADKT5ADAOjDDiXKiXEAAAAA3UOQAwDo4w4myolxAAAAAN1HkAMA6AcOJMqJcQAAAADdS5ADAOgn9ifKiXEAAAAA3U+QAwDoR/YV5cQ4AAAAgO4nyAEA9DN7i3JiHAAAAED3E+QAAPqhPUW5IjEOAAAAoPwEOQCAfmpfUU6MAwAAAOgeghwAQD/WMcq9/56KXb/EOHq37Vn+wN256fprc07NqRm069d785Hr78ydCzcXX9C3bF6ehhXbi9M+bEvmf/HyDKq5MJfcurK4WGrzw/nsq1+VQTWvyjlffDibiusAAAD9lCAHANDPdbZTToyjt2pZsSD/cvnFqTvr/Xnje76VX5Ss/ibXvOfKvGLmZbnkywuyvKVksQ/YnIa7vpdLTvn73Lq8PwW5/bU9S++4LZ+fl5z9oU/me+87MSOKtwAAAPRTghwAwABw2V6OroTeomXFb/N3l34kH7xhYTLnklx3w/VZtv6+tG5s+9XccH1uvOo1mZiF+fbffCRvvbaP7bDasTi3fuDz+faK4kJfNyyz3v+1tG68Od96/fji4vMaH8y/fviuHP+hT+Z7Hzs9E30aBQAABhAfgQAAgJ7Xsjw3X/Uv+dS85OwPfTnLbntfLn3NCSXRZvCEE/KG9/9d5t92ec7O6vziY/9fvvpAY8d3oTerfnE+3fDT3PUJMQ4AABh4fAwCAAB6WEs2zrsp771+YTLnbfnsh1+8l2BTmYkve1M+9oETkszL5//70Wws3gIAAAC9zB4/5gIAAHSLlsX5r3/5UZbnhFz516/OrOH7+pgyKme/+29z83e+mB+9++TUFJdbVmf+j3+az17+lgyqOXXnr/fmI9f/OvNXFJ/d1pzlt36q7Z7L78zyltWZf+v1uaS+/XWvyjkf/+/c8sDq7P7Iuu1Z/sDd+a8vfiJ1u/6cUzPo1dfmG7fOT8Pm9lfs/DPGXJwrnkqS+bnirJdlUM2FueTWlR2+hgtzya3Ls2nhnfnIq1+18/0+kM8+0JisuDOX1JyaQTWfyk0rmku/jF1W5qbLL+zwvgWbF+fOmzv+3U5N3eXX579+tXgPR39uTsOv5pZ+H+s/kc/e3PHvliRbMv+Ll+/5z83mNPzqznzj4+8t88+jM8+l4fq/zqCat+SyW5fv4TUt2firL6eu5tTUffx3Ai8AAFAW+/qkCwAAUF6bn81jD69OcmSOrxtWXO3U4Akn5ILXz86sCZUl85YVC/Ivf/HenHrR3+WKGxZ2WPlNrnnPX+XU+r/K3/7q2c7DzDO/yxf+4r059c++2OE5b6vziy9cnQvP+sd8vuR4zO1ZeuvnM+us9+dNH/txlndYybxv5bI/uzzHv+n7mV8SrvZtx8Lb8/5XX5lr5q3eORmSMdVVhbsOVEs2NdyWS055Q17xto5/t2T5DV/Mm177zrzuk7/N8o5f6uYn8o3LL8vxr/3b0u/jih/nirddnuPfdF3u3C2mdaLl2dz5yY/k+Ndemcu+8JsOC13989iTwzP1zDNzXhbmG9+8Nws7/YM25r6f/ybL88r849tm7B54AQAAuoAgBwAA9KiWlcvy4Iokx5yYGVMOLy7vv5blufmqT+WDNyxMJrwmn7nlpjRuvC+tG+9Lc8O38h8fOCPJb/Kp117decyZ98Ncc9fxHV53bxrvvyZXzhmXZF6u+Ic709AedBofzL9++IdZnql526euy7L1bX9OyWvm/SD/esezSSoy8fV/k9a11+czxyTJrHzml79K68ab863Xj+/wBSzJ9/7+K7n9nI/ktw33tL3Xg+/N+ccewvckSTY/kq9+4EttUWvO23Pj/b/c+bX+Mo995+1tz+P73L/k725r30HWmPn/fm0uu2FhkjNy5Xf+a/fvx7yv5c+u+nWWdhq42jVm/rVX5xWf+03bz+M71+/6PpX8PN7xjdy8vJO4dyA/j70YfOyMvPkV45I77sm8J58rLqdl+f357vcfSV5xZuYc6vcaAABgDwQ5AACgR7U0bswTSXJsTaoP+hNKh+fQTXhTbvzl3+XD50zOiJ2rgyecmEv+/qO58eKpe3n23Jx85j8/3OF1gzNi6tn56F+/LhOT5I4/5H9XtR0XuWPho7lxRZIJL80lb3tRh2feDc6IqS/Pp3/y006C2/54Zf7xigty2oTKtvc6dtJenqe3P1qycf4v8vl5q9u+L9e9M2+YOnzn2vDUv/5t+exVc5KOO8gaH80PvjwvydRc+p2P5lOvn1Ly/fjY1W/L2UmWXz83/6+TwLXLrvfZ+X19/Qm7/i4lP48VP8x7/+3BQ/p57NXgusx5w8lJHsx/3rOssBvvuSz8+dx8Y8W4nPeGGZl6SN9rAACAPfNxAwAA6B2e3JjG/djx1LltefyBh7I8ycS3vDyvnFh6lGWSZPDEXPhXF+W8JMu/f2/uK/5hx8zKOS+qLp1lcGrqT8i5helhU6fnjROSrPhRrvrMLQfwTLN9mHBUpow/rDg9BO3HMe7p+1KdWe//QtuOuf++IPWDW7LxgXtz/c7Y+H/OGV/40Dg4I055a+7aeF9aN/5zLp26px1lHd7nFefk9TOK39eu/Xns3eGpv/CNuXLC6sy9aUHpsZUtyzLvpgeTnJw3n1nnAzIAAFA2Pm8AAAA9anB1TY4rDg9YY57+w8okk3LuqZP3+BywwePrcvKEJCseyv0Lt5UunnFk6va3hVVPz5++Z06HZ5q9KhU1p6bu8uvzX7fOT8MBPjtulxMnZdLwLvyY1rI+i37/7D6/L8/bkRVPP9P2TLxzTsgJB71l8fn3Oe7s+hy7h7d5/uexMes3t5YuHsjPY1+qp+WP3nLCbsdWtjy5IP95x2rHVQIAAGW3h49FAAAA3WNXlHnq4SxYtJcjEEtsTsMDS7KpON6XoSNyxNDi8GBUZ9b7r85jt31s5zPN2iy/4Yt5059dnuMnnpa6y3+Ye1d08my0vamtPoRjOzvRsjVrn1xdnO7FjjSuXVccHoT9fJ8u+3nsS01OfeUZmVhybOVzWXjPPZmbqbn07ac5rhIAACgrHzkAAICe1b57KYty9x/W7N/Rj41/yHVvvjDVNZfnsw9sKa7u2dZNeXZrkozOmOpD3X41PPUvu6DteXHLb8od37kmP7zqNW3PN0uy/IZP5/RLf5j5B7tbrisMHpoxxz4fDPftsFSPGV0cHoT9fJ9dP49yG5yaWWfng3Py/LGV7cdVdno0JwAAQNfymQMAAOhh7buXFuYbX70rD+wzYD2XhptvzDUrkrzi1Xn9jGFJqnP0C8YnWZKf3bc4G4sv2all5bI8uKIMz2obPjkvf/3L8yfv/2SWbbwny267PGcnybxf5q6GwtGYh2RD1m9qLg7btGzN+lWFP2vwqEx50RF7/b60LLwlf1RzagbV/HW+sbAlE44+qi0q3vVIHik+1y1JWhblG3/8qgyqeVX+6PpFewioh+16nyd+0ZAnO7/p+Z/HMZNy9LiK4nLXGj4tr7/o5F3HVrYfVznxLafl1C7dlggAALA7nzoAAIAeNjg1c96QL108NZn37Xz4s7/L8j0EnKQlmxrm5uqrfp6UHDU4JNNOOSkTkyz//k/zXw2biy9MWpbn5n+5IXOTTDz3hBx/0M9qa87yWz+VQTWnZtAf35KG3b7Wykw85eScNqE4PwTjJuZFxyTJ0jy2rLMdgS3ZtOB/cv0dxeMp22Nnsvz7d+bny4tHaLYf25idz1EbkppTTsvFE5Ks+HW+e9fK3YLbrueu5eS8+cy6PXyoHPz8+9xxV25d0Fi8ofTnccH0TOvCPtq5wzP1zDNzXh7Mf97zVBruuSdzc0IufuW0/Xi2HgAAwKHp/LMTAABAdxo8MRf+3Ttz6YTV+cXn3pO6116bb/z4kZIw17Likdz0xU+m/tS/z7dXjMvZH/qr/ONrJ+78UNMh6q24JZe99pp89q7Fu54x17Li4Xzr76/OG69fmGROPviOF+fIg/40VJGJ57wyV05Icse/5fK//0nmd3xW3OZFuekz32rbwTfnrJxTP6Rtvuv4yA155JkNu4WuvTpsYmZecEKSR3LNP1+fbz2weufrN7c9T++u7+c9b/58flF83a6jGsclK36Y9/79D/Ozhe2xcnMabv3/cvl7CnGzenr+9D1zkizMNz781Xx+1/exJZsW3pm/+ct/a4toF5+XPzr28JI/rcSu95mXK9782Xz21ud/nqU/j1fmH982o1ui2OBjZ+TNr0jm3nB9PnXDg8mEM/JHp3THnwwAAAx0B/0RFAAAoCsNnnh2vviTa3LlnHHJvG/lsosuTt2oU9t2otWcmor6i/PGj/04yzM1b/vUp/O9j52eiR0/0QyemAs/9jf5/EVTkxU/zhUXvCHVu157Sf78C79Jckb+5raP5oOnVHd44UGoPjkf+PfLc3ZW5xdf+HhOrT9z19c5aOKf5I1f+E0y4YJc94ULMqt9J96u4yMX5ht/9rpU1FyYS25dWXznPajJaX98/s5jML+VPz/rVamoOTWDas7KoJqzcvwF387i93w5d1w1q/jCZPgJede/Xpkr54zL8hs+n/NmnrXzaz0rx//ZN/OLFONmdWa94wO58QNnFL6Pp6V65pW5Zt7qZM7l+c7HXrqPqFmdWe/7aO740M73+bPnf56lP48P5c+n7iXsdaXBR+aP3n5OJs77ab49Lzn7PWfnNMdVAgAA3cAnDwAAoJcYnBFTX55P/+TGPHbb5/LDq17T9iyzXc7IlV++Jnfcf12+9Z4ZpTFup8ETZuSv/u1Lue+Gf8xnLpraYeWMXPnlf8l9Df+Sf3rZEV3wQagyE192WX50/9dy45cvaQtl7Sa8Jp/59hdz36/+OpfWD++wMCpnv/uv8x8fOGPn9ZLc/dTa7Ohwx54NzohT3pIf3f+10u/LnEuSOZfkutu+nh+9/0UZWfqinXZ+X3/49dzx7ffnbR2O0px40fvzw9u+nh99ohA3h0/JG/7h03nstn8q/T5OeE0+8+2v5bEfXpaXT6js8II9GHxEXv6JTt6ny38e+6syR57z8rajNHNyLn7NtIwo3gIAAFAGg1pbW1uLQwAA+p/vDTpn1+/f2npXyRr9x+LffSGbV9+z63r4qPpMfuGFJffAQNay8JacP/OqzH3Fx/LYjRekvvtq4CHbsnFFnn7o2yWzE87/z5JrAACgd+pDHz0AAADgUDyXhffck7kdn5kHAADQDXz8AAAAYADYnuXzb8nVV/08mfDS/J9zxvtADAAAdBufPwAAAOi/djySz844NYNqzkzdOZ/Ot1dMzaWffUPOrvZxGAAA6D4+gQAAANB/HTYmx54xqe33E16Tz9xyTb74+ok+DAMAAN3KZxAAAAD6sfF5w9duTuvG+9La8Ml8+JzJGVG8BQAAoMwEOQAAAAAAACgjQQ4AAAAAAADKSJADAIBeZPmD/5vVDU8WxwAAAEAfJsgBAEAvMnLykZl7/GW568p/EuYAAACgnxDkAACgFxk2ZnSmXfu2LP/Mz4Q5AAAA6CcEOQAA6GVOfOuFu34vzAEAAEDfJ8gBAEAv075LriNhDgAAAPouQQ4AAHqhjrvkOhLmODDNWX7rpzKo5tQMuvzOLC8uAwAA0C0EOQAA6IU62yXXkTAHAAAAfYcgBwAAvdSedsl1JMwBAABA7zeotbW1tTgEAKD/+d6gc4oj+qFRF09M7cu2ZfiRlUmS4aPqM/mF+w579FfNWX7rNan7sxuTi67Jsq+9PBOLt9BnbNm4Ik8/9O2S2Qnn/2fJNQAA0DvZIQcAAP3I+uuXp+H/rsvCb6zP5qXbi8sAAABADxDkAAAAilbcmUtqTs2gGddn/o7tWf7Anfns5W/JoJpTM6jmVTnn47fkzoWbi696/nWX35nlmxflpo+/9/nXfPHhbGpfr/lUblrRXHx1kpW56fILM6jmwlxy68riYpLNafjV3A5fS/uv9+Yj1/8681fsI8K2rM78712bc9pfV/+JfPbm+WnY3FK8c6fNafjVnfnGrr/Hfvx5Lasz/8c/LXyNr8o5H//v3PSrxdlUvB8AAGAAcGQlAAD0Yr/70jfz+PtKj6jbG0dWdpEVd+aS+ivz7WMuz42fT67946/lF8V7ckb+5rZP5B9fdsTz/6Vj++vedHk+M+SOXHH9wp0L43Lel7+a2899Mm+vvzLfzhtzY8OVecOEiuffLtkZ5C7PG29I3vadr+Vbrx///FLLs7nzqk/mFZ/7TccXlJrwmnz+hvfl/bPG7fyaOhxZudvX1MGcy3PHN/48L5/Q9s9NkqRleW5631/ljZ3d327Cm3LjLz+YN0zc+bp9vmZczr7qc/nR+0/MiOIS++TISgAA6LvskAMAgF5qy9p1+x3jJl5xbs577Lq88H2n7YpxdIGnvpY3/vGNyQf+Ifc13JPWjfeldfl/5cYPnJHkN/nUaz+X/1j4XPFVyQ+/lit+dnw+f9dP07zxvrQu/2auPffIQ/gA1pj5117dFuPmXJLrbrspjRvva/t6Nt6X1uU35Y4vX5KzV/w4H7zouty8vJOdaz/8Wq64flyu/Oq3smz9fWndeG8a7782n7loajLva/mzq36dpbs2yj2Xhu9+sS2szbkk//HLnX+PjfeldeMv89gtH8zbJiRZ8cO8998ezMYkSUs2zrsp771+YVsYbP+7t7/mO2/P2VmdX3zs1sztdHcgAABA/3XwnwcBAICyevh7NxdHu2kPcedc87cZV39scZkuMPHiK/Odv391ZrXvHhs+JW/4+4/mxounJvl5/u7bC3YGqY7G5byPvf35nWrDJ6a+4+6zA9Sy8M787cfmte1Iu+5dufRlk0t3mA2fnJdf/K585ztvysQVd+XaHzR0cjTk1Fz6nY/mU289MRMHJ8ngjJh6Zj749+/MpROS5dd/M/86b33brS3LMu+mB5OckCv/+uJcckr7jrskGZ76c/4kH/3YK5Mky1c2pu3wzm15/IGHsjzJxLe8Npft2qW38zWvf0/u2nhfWjf+TSc7AwEAAPo3QQ4AAHqhfe2OE+K6yyvzj381J0cWPzkNnpgL/+qinJdk+S2P5vEdhfUckZOPHtVFH7ias/IPf8jcJMe95/V5ffvxkLupzJGnvTjn5v9n787Ds6rPhI/fICCy75CIgAoRVETFtdIqaLG2Vq1OFzsVq3TU6TJt5612m3act9N2ql3s2Hasr7i26mihrl2wAiqIC6i4FIiICJiwb2EJEMj7BwZzDgEC5CTP8+Tzua5c5dy/54mpNdr45T5nRUy5/aWYm/6azr40vnl+0S5fU8uiEfHN750TEbNj/MvlURUR0XJAXPnHv0T1unviJx/qknpHRMRB0bFz59SsbQw64bgoiojym+6KH+7uGXMAAADNUPpnMQAAIAfsbjtOiGtkfQ6LAb1bpacREdGyd3Ec3yci3l4c76xI34Lx0DiquF1qtr82R9nbCyIi4q3vXRatO50ULXb3UXJd3B11f01FQ4ujT50/Ab4f1976e3ksTx9HRMTWKH95Wkx4ZFJMeOTJuP37X93xXLqEltFp+FnxryN6RMRzccOXvh4nlZweLTp9Ji7/5V9iwtML69jaAwAAaB7q/HEMAABoOnVtxwlxTeSQTtH5kN382HRIh+h5SHpYo3N06ZBbt2Vs171D1J0ID4qeh/WNI9Pj7Sti5iP3xOUlJ0WLTqdH8ZlfjUs+d11c8rlvxtibnku/eof2x8Q3Hrx1x/Psdg7nxd3f+7e45PyLo2Onz8Tlv54V5TufVQcAANA87OYnSwAAoKnU3o4T4nLYpvWxfFN6mKUeMfrXf4ht62ZE9V4/9uU5bdti+aLF8VZiVhEzb/7POOlzv4y7l0REnBbX/fonMf53N8T43/0snnzpySj73SWJd+zUvl+MuuwrMXndC1Hx0m9j/O/+M268dOB7h/Pi7m9/Mz578xu25QAAgGZFkAMAgBxSsx0nxOWIt9+IWQu2pKcREbF9aVm8siQiDu8b/XvUN37VWBtr1qdvcxkR2zfFmmWVqWGr6Nita0SsiNfeXL7fIeutKaUxv87NtIqYPePvO4LfiCOid0RsnzcpvvO9qRF9LoxxM56K6nW/ip9cdnZcfMGouPiCM2PUwEOiYu3a9CdKaRkdBg6Piy/4SHzjt/dH9Zo/x5P/57SI3T3jDgAAoIAJcgAAkEM2rlgtxOWUV+Kex9/cNYJtL4+HfnFfTIwecdaVJ8ZRdT9mblc9imLo4RER78bcso2pw+2xftazcc+TK1LzNjHw9NNjdESU3/T7uPXlitR5ja3x7iM/ieJOJ0WLTzwcpen49uTkeGTWru/dXv5S/P7+2RExOD58bPdoGRHbK9bt2Jg75rgYMbB9+i2xfcnLced9r+y4eO7dKKuKiFgaE66+KFp0+kice8+CSP/ho2X3OGnkkChKzwEAAJoBQQ4AAHJIj5IjhLicsiKmfO8H8aVfTo/SDTsS0/Ylb8Rd1/8wLrlnXkSfkfGVT5VEh/TbdqdVUZx44ZCImB03/Nc9cdfLK94LVxuidPL98aVP/zympN8TES0Hjoof/WBEREyNaz/90/jpI7OTz2HbviJmPnJ/fOcbD0Z5DIwrrzglBu7y095775288L3AuDXKX/5TfHvsDXH7koiiyy6IS4d1jIiIlh077Xim3JNPxLj736j1x9oQpU8/HN++8t/jx1PT4bBnnPOPH46iWBETv/TT+Pa9td+3PdbPmxI//K9Ho3xfIyYAAEABaFFdXV2dHgIAAPlp4Ys3xYYV03det+9SEv2OvSjxGuphyaS4vOS6uDtOi3/9Wpe476a/RHn6NX0+Fj+/7yvx1eE93v+djjvfd0mML72ujue4bY/1L98fHz+zrvDWI876wX/E9+L2OPt7S2PM734bd13Q+/3jDW/F7f/63Rh737zab0oZGGN+/cP49WVHvhcJt0X5IzdE8efGx5HX/2f88K074zP37Pr+okuvj0k//2gMbl/z36QiZv7ye3HS96amXrlD0aXfjAn/GPHv5/8kJva5Ip6c+c8xqmPLiO3LY9IP/iPO/tlz6bfstOsfi/rauG5JvPPq3YnZkPP+N3ENAADkJj8BAQAA7NahccYXr40pj30vrhvR473ZaXHdr38RM57+t/h67RhXLy2jwwmfiUdf+m08+IOPvX/7xhGXx7jHbo1Hvzo0Oiff8L72R8aVvx0Xcx/7Udx46cDUYY8462vfjYee+lXcsTPGpRzUPy65+Vcx45bL46yaWZ+PxY2/uydm/s/5qUDWMYZ/5d9ixn3frfXf+72v8757Yub/fDJOG3FyfPrsHhFLnou/vrxux3nLnjHq338Scx+7IcZ97bT33xcRRZd+NR68r64/FgAAQOGzIQcAAAXEhlwD2eumGzQ+G3IAAJC//LZEAAAAAAAAyJAgBwAAAAAAABkS5AAAAAAAACBDghwAAAAAAABkSJADAABI6zMq7lo3I6rXfTsu7nNQ+hQAAAD2iSAHAAAAAAAAGRLkAAAAAAAAIEOCHAAAAAAAAGRIkAMAAAAAAIAMCXIAAAAAAACQIUEOAAAgImJDeZQu2ZqeNqyKF+ObJSfFwF/Ojqr02S62x7qnfx3Fna6On768MX0IAABAHhHkAACAZm5DlE6+Ny4/4fp4pDzDILe9PCZ862dxw5L0Qd22l0+Jr3/hjihPHwAAAJB3BDkAAKB5q1oYj3zt53F3PUPZftmwICZc/8O45J556ZM6bI/18ybFt8feELdn+TUBAADQaAQ5AACAzOyIa9/85DVxyU3PpQ/rsCFKH/mf+PiJ18UNU1ekDwEAAMhTghwAAEAWti+PSf/xL9HxxOvihqkRZ/2fn8T464enX7XT9iXPx3c+ekkc9bk7YkqcFt/+40/ix4enXwUAAEA+EuQAAIBmaluUP/LjaNHtsrj27YiImXHtmR+KFp0uissfWRpRNTt+OuykaNGpnh9XT0o+7237inhpwnMRIy6PO5/6XTz576dH/4NqvyBpe3lpPDA14qyv/d+YUfqL+NGZxdEq/aJ9tjXKX54Wf/jlv0dx7a/1ozfH7Y/MjNIN29Nv2GHDwpj00D1xeUnqPY/PjvJd3vLen8edfw42ROnTD8c3P/qR99775fjmvW/sfN/2JbNjQu2v56M3x+1PL4z16U8LAABQQAQ5AACALLTsGSN/ck+UPfaVuPyEHnv94atl0Ulx01O/iyf/70djeJ/W6eP9sDXefeTnMfzMr8Ynv/d4MhZOvSvGfu7qOOqT98fMVJTbvuT5+M4nr4qzx/wy+Vy9qXfF2Esvi+H//GC8sGRrrYNaqhbGn//jm3HU+T+odcvN5+KGay6P4V+ZFIvKn49/u/LrcUntr2fqXTH2/Oviq4+Uxy6tDwAAoEDs7WdCAACAAnVQFF3w7ahedU/ceHhExPC48amno3rdQ3HXBb0jWg2Jb8yaEdXr6vnx21FRVPvTt+wRwz8yJIrq+VNXyz5D4vx6hLt6q3gl/vsbD0Z5DIwxPx4XZWtqvtYXouKlG+K6ET0ipj4Q//3k8vffs+GN+PmV/x4/nhpx1te+F0++9FSt9/xPjPvaaVF+30/ioh88E+/WVc8e/FWM/X33+Pnkv8S2dTOiet1TMfd3V8RZEVF+zx0xZuwvYvpJ/xIzSqfv+Lzlf4jxXzstIubF7d+YEFMq6vqkAAAA+a/BftYDAAAgd1TNmxPjl0REnw/G5WOG1gqDLaPDwFHxkz/95f34GBERW6J0wj1x7dQVUXTZdfG76y+MUQPb13rPyXHl9d+N8ZcNjPJ7Hon7ZlXUfMJaRsSN//uN+PrwmrDYPkrO/1hcdnaPiJgdU+KC+Ok3P/L+BmD7AXHxFy+OMRERS9bFmg3Vic8GAABQKAQ5AACAAtRq4OC4pE9ELHk0fnDjw/Hwyyv2ckvI1fH61DkRMTz+9QunxaF1/bTYslecfu6wiJgatzy9OKrS54cPj5FDOyZnLbvEgKE9IyLiyHNPiGHtU5+4R1EMPTwiYm2sWb8teQYAAFAg6voRCwAAgHzXcXB86ksjImJFTLnph3HRmR+JgzqdFMVX3xN/eGRmlKaeHRdVq2L+c4sjYmZce+aHokWnk+r4ODWKPzc+IiLe+nt51LrZ5Q6nHRrFrdLDNtG5e7uI6BtnHN4tdjneaXWsqtgl8QEAABQEQQ4AAKAuVbPjp8PSQWoPH1dPivL052hSHWP4V38Ycx/73o7nxb2n/L5fxic/d3UcVXRKFF/9YLywZGviXQAAADQ8QQ4AAKBgtY+SD12443lx5RPiyd/dEA/+4GNR9N5p+X0/iVOvfDBmJrblzolxLz0b1etm7Pnjt6N2fh4AAAD2TJADAACoS6sh8Y1ZdYSo3X3keqBq3y9GXTAq/uGr/xFl66ZH2WNXx1kREVOfismllREtD4luR/SIiHdjbtnG9LsBAAA4AIIcAABAwdkW5Y/8eMetND/xcJSmHhcX0TqKTjg+TulTa9SyOEZcfHxEzI4b/utPqa2592wvjwlf+ky06PSROPeeBVHHKwAAAKiDIAcAADRvOzfD1sbsRWsLJDIdFEUjz4nr+kTEk/8TV1//p5hZ+1lxGxbEhBvvihuWRMSIM2NkSduIaBMlF18WN47oETH15/Hxf/19THh5xc4/H9uXzI4JN98SX75nXkSfkXH1OYf6gRIAAKCe/PwEAAA0by27xIChPSNiXtz+uY/HQZ0uissfWZp+Vf7peHx87bar46xYEVNu+n6cVHL6jo25TidFi6J/iEtuei6iz4Ux7qYLY3j79340bD8krrnpyzGmT0T5fb+MS878SBz03nsOKrksLvne41He58IY99iX4+Ki1uk/IgAAALshyAEAAM1clzjri9+KO7922nvXi2Pa26uiKvWq/NM6ij40Nh596bcx/teX73heXI0+H4sb7/5lzHj6W3FlSftaBy2jQ8n5cdfLE+LJu78aY2rf0jJOi+t+/Ys63gMAAMDetKiurq5ODwEAgPy08MWbYsOK6Tuv23cpiX7HXpR4DZCfNq5bEu+8endiNuS8/01cAwAAucmGHAAAAAAAAGRIkAMAAAAAAIAMCXIAAAAAAACQIUEOAAAAAAAAMiTIAQAAAAAAQIYEOQAAAAAAAMiQIAcAAAAAAAAZEuQAAAAAAAAgQ4IcAAAAAAAAZEiQAwAAAAAAgAwJcgAAAAAAAJAhQQ4AAAAAAAAyJMgBAAAAAABAhgQ5AAAAAAAAyJAgBwAAAAAAABkS5AAAAAAAACBDghwAAAAAAABkSJADAAAAAACADAlyAAAAAAAAkCFBDgAAAAAAADIkyAEAAAAAAECGBDkAAAAAAADIkCAHAAAAAAAAGRLkAAAAAAAAIEOCHAAAFJCWrTukR0CB2LiuLD0CAADyhCAHAAAFpG2n/onryvWLE9cAAABA4xPkAACggG2r2hjbt21Jj4E8VLl+WeK6beehiWsAACB3CXIAAFBA2nUdlB5FxaqF6RGQhzaumZe4btv5yMQ1AACQuwQ5AAAoIG079kmPYuNat62EfLd+9cLYVrUxMWvX7ajENQAAkLsEOQAAKCAtW7WNjkUfTszWLHkhNm9cnZgB+WX5O9PSo2jX9Yj0CAAAyFGCHAAAFJguh56RHsXS+U+lR0CeWLt8XlSuX5SYdel3UbRu2yUxAwAAcpcgBwAABaZDzyHRvsfpidmGNaWxYvFLiRmQ+zZvXB1L3/pLehw9jjwvPQIAAHKYIAcAAAWox8CL0qNYvuBvsXb5vPQYyFHbt22JRX//4y7PjrMdBwAA+UeQAwCAAtSu64Do0m/XKFc2d4JNOcgDmzeujnkv3hpbK1ck5ge17hK9j/pEYgYAAOS+FtXV1dXpIQAAUBjefvY/o3Lta+lxtO9SEj36nRbtOvVJHwFNaPu2LbFi0cxYufiZ9FFERBzxwV/GwR183wIAQL4R5AAAoIBtr6qM+dO+H1s3vpM+ingvzHXsPig6dBsQrQ9unz4GGsn61QujYuX8qFjx+i63qKxRfPw3o3PRiekxAACQBwQ5AAAocNurKuOdF35a56ZcWuu2PaJN227pMZCBbVWbonL9ovR4Fwe17hLFw74WHXoOSR8BAAB5QpADAIBmYtnch2Pl/HvTYyCHte08NIqP+4LbVAIAQJ4T5AAAoBnZuHpBrJj3UGxYMT19BOSQ1u36R8+Sz7hFJQAAFAhBDgAAmqGNqxfE2rLpUVE+JbZtXZM+Jo+9/NFlO399wp96Jc7IfW07D40ufUdG5+Lh0bJV2/QxAACQpwQ5AABo5javXxKVFWWxddPK9BF5aOKRP9r569FvfSdxRu5q13VQtO3YR4QDAIACJcgBAAAUkHtbjNz5689WT06cAQAA0DRapgcAAAAAAABAwxHkAAAAAAAAIEOCHAAAAAAAAGRIkAMAAAAAAIAMCXIAAAAAAACQIUEOAAAAAAAAMiTIAQAAAAAAQIYEOQAAAAAAAMiQIAcAAAAAAAAZEuQAAAAAAAAgQ4IcAAAAAAAAZEiQAwAAAAAAgAwJcgAAAAAAAJAhQQ4AAAAAAAAyJMgBAAAAAABAhgQ5AAAAAAAAyJAgBwAAAAAAABkS5AAAAAAAACBDghwAAAAAAABkSJADAAAAAACADAlyAAAAAAAAkCFBDgAAAAAAADIkyAEAAAAAAECGBDkAAAAAAADIkCAHAAAAAAAAGRLkAAAA8sDWTZWxcdXq9Hi/rV1cnh4BAACQEUEOAAAgT/zpI1fHi7+644DC3IrS+TH5uh9F6UN/SR8BAACQkRbV1dXV6SEAAAC5Z/aEP8XLl9wYERGDbh4Tx3z2ooiIaNet687X3Nti5M5ff7Z68s5fryidH6/ddn+U3/hERERctHJC4n0AAABkR5ADAADIE1s3VcbDZ46JLS8uT8xr4ly7bl13CXLpEFfz+pO/fMXOawAAALIlyAEAAOSR2ltyaYNuHhNvfuXunddF1344EeJq2I4DAABoXIIcAABAHtndllx92Y4DAABofC3TAwAAAHJX60PaxjHf+nx6XG81z50DAACg8QhyAAAAeWbgeaOizck90+O9GnTzGLeqBAAAaAKCHAAAQJ7Z3y0523EAAABNQ5ADAADIQzVbcvXdlLMdBwAA0HRaVFdXV6eHAAAA5L7ZE/4UEREvX3Jj+mgXF62cIMgBAAA0ERtyAAAAeWrgeaPq9Tw523EAAABNS5ADAADIU60PaVuv58l5dhwAAEDTEuQAAADy3J625GzHAQAAND1BDgAAIM/taUvOdhwAAEDTE+QAAAAKQF1bcrbjAAAAcoMgBwAAUABaH9I2Np58RGJmOw4AACA3CHIAAAAFYNy4O+LOmc/G1g47rov/8yLbcQAAADlCkAMAAMhz48bdEbeOuyM2tIyYe2j1jtm0KVFWVpZ+KQAAAE2gRXV19Y6f1gAAAMgr48bdERERt773nxER7bdHfGhly/hzz+3Ru1fPuOU3N0dxcXGtdwEAANDYBDkAAIA8VLMVtzeiHAAAQNNzy0oAAIA8U98YFxGxdNnyuOaLX3H7SgAAgCYkyAEAAOSRPcW4q8YeEX/8w1nRu1ebxFyUAwAAaFqCHAAAQJ7YW4wbO3ZIFBe3j1t+8wFRDgAAIIcIcgAAAHmgPjGuhigHAACQW1pUV1dXp4cAAADkjt3FuKvGHhERkYhxtZWVbYhrvvhsLF22JTHv3atn3PKbm6O4uDgxBwAAIBuCHAAAQA7bU4zbXYirTZQDAABoem5ZCQAAkKMONMaF21cCAADkBEEOAAAgBzVEjKshygEAADQtQQ4AACDHNGSMqyHKAQAANB1BDgAAIIdkEeNqiHIAAABNQ5ADAADIEVnGuBqiHAAAQOMT5AAAAHJAY8S4GqIcAABA4xLkAAAAmlhjxrgaohwAAEDjEeQAAACaUFPEuBqiHAAAQOMQ5AAAAJpIU8a4GqIcAABA9gQ5AACAJpALMa6GKAcAAJAtQQ4AAKCR5VKMqyHKAQAAZEeQAwAAaES5GONqiHIAAADZEOQAAAAaSS7HuBqiHAAAQMMT5AAAABpBPsS4GqIcAABAwxLkAAAAMpZPMa6GKAcAANBwBDkAAIAM5WOMqyHKAQAANAxBDgAAICP5HONqiHIAAAAHTpADAADIQCHEuBqiHAAAwIER5AAAABpYIcW4GqIcAADA/hPkAAAAGlAhxrgaohwAAMD+EeQAAAAaSCHHuBqiHAAAwL4T5AAAABpAc4hxNUQ5AACAfSPIAQAAHKDmFONqiHIAAAD116K6uro6PQQAAKB+9jvGba+ImY++FZMnTIlr717y/vysM2PcV46IYacPjOFFB9V+x15tL383Hp3+bjx789/ihinr3j8oOjFu/O9j48TjjohRJW1rvyWlOtaXzo8Hxk2JsTe8uWNUdGLc+N/DYuQZdX89ZWUb4povPhtLl21JzHv36hm3/ObmKC4uTswBAACaI0EOAABgP+1fjNsW5S+8EN+66OG4uzx9VtuguO7O0fG1yw6Lor3d22T9injilklx+bUvxR4/ZfSJMT//RPzXV/vX8Tm3RfmkyfHZs/8WU9JHERFFJ8e4SR+LKwfvGvREOQAAgD0T5AAAAPbD/sW4yphz++MxauyLUR6d4qzrzomvfWpIfHx4x/eeJ1Ad60vfjr88MiP+5dqXdrzm25+Me/9zUB0BLSLW79isu/1L98fYu5fsiHjjTo1zRwystQlXx+e88bJ49BuHRYdan2p76Yw476g/xMRUCNxevijuuWlifP6GNyPOOj9mPHpGDO/QotY7dxDlAAAAdk+QAwAA2Ef7F+OqY/3MafHxkx6LKTEovv3kJ+M/R3XazYO9q2P9nJfiS6MejLvL+8SV4y+P/3dx19RrN8XMn/5vREScdO2ciLPOiSfvHRmj6rit5A61N+CGxri5n44rS1q9d7YhJn3z9jj7hoo6Y12sXxQ//fg9ce2UjnHdk1fGT0a1r326kyiX2zas2xjr121Mj4FG0KFTu2jfqV16DAA0I4IcAADAPti/GBcR25fH7ef9vxg7sd1uAltarYBXNDKenDM6RnV6fzOtZqMtImJi0ekx/sXz4+JDdxfjauyIeCddOyeKrvunmPOTI6NTRMS6t+Kbg/9f3FCeDnU11sSEy2+NS+6OGDP+qrjr4i6p8/eJcrll0bzyWDD73Zg3852oXJ/83wRoXG07tIl+RxfFgKP7xpHH9ksfAwAFTpADAACop/2OcbVvCbmH2z7uYvvqmPBPd8Ult2+M0eP+Kf58Zc/3Il5VlN7+v3HU2HciIureatuN7aV/j19O3Rb9BxTF6FE96vWe9zfk+u8m2CWJck3vrdcXxgt/fjXWLK1IHwE5oEvvjnHKeccJcwDQjOz5N2QCAAAQcYAxLqIq5k2dGxOjU4y+7Kg4oT4xLiKiZZc45x+HRFGsi4lPLY2lNfPtq2Pq/74TET0iokd8bGTv+oW1iGhZcnR8/cqhcXG9Yty2KJ/5evz0S+Pj2ikRZ934ofjUXmJcRERxcfu45TcfiN692iTmS5ctj2u++JUoKytLzGk4q5evjQm/mRgT75wmxkEOW7O0IibeOS3uu/GxWL18bfoYAChAghwAAMBeHFiMi4jYHIvnroqIVtGnS+t9+EGsRXTo2z2GRkRMWxVlVe+N16+Lua+tiyjqH1HUP04c1Dr5tgO2JWb+9NZo0eK7UXzS7+LaJ4rjxolX1XsLL0S5JrFoXnk89Ou/xdL5K9NHQI5as7QiHvr13+Kt1xemjwCAAuOWlQAAAHtw4DEuaj2DrUvcOOPz8Y3hyUi1R+Wvx+XFv4u7j/xozJjzoRjeKjmLiPfnDabm611Va9Ynxvz8E/FfX+0fRfUvim5f2Ujeen1hTLxzWnq80+Ll78S7yxdG+YrFsXR1ecyaNyP9EiADwwaeFL27FkVRj75xaM9+0bdn//RLdvrARcfHsBH1/ecKAJBvBDkAAIDdaJgYF00W5KpmPh2DT/pTvJU+iIiIU2N82YVx8V7rWnWsL30jfnD1I3HDlH17Xl0NUS5bi+aVx2O3TEmPIyJifllpPPHiYwIc5IhhA0+KD598fhxRXJI+ioiI0Z8/w3PlAKBA7e0nLwAAAA5Y6+jS55CIWBOvvbMxfbhH2ysqY0l6WGPjpoiNm2Ltxix/n2WL6FBybPz4t6NjdKyLKdc+HQ+U1tw7k6a2evna+Nvvnk2PY2vV1vj9xNvip/ddL8ZBDpk1b0b89L7r4/cTb4uNlevTx/H0H170TDkAKFCCHAAAwG6MHXtFXDX2ivQ4bh03P8aNm50e78HB0feobhGxKqbN3xD1z1nVsX7xyngtIuKMblFcswXXu3ecObpTRPmKiPIVsWDJtuTb3tNq+IdiXvV/RXXtj61fiRuPTL9y71oO7B+fHt0pIlbF3MWb08e7ZTsuW88+/nJUrk/+uV2zflX84oEfxLTXJiXmQO6Y9tqk+NWEG2LN+tq3Bo6oXL8l/nLnM4kZAFAYBDkAAIA9aJgo1yoGjjgqRkfEW4+/HbPW13Ojbfua+NvvZ0d5dIrRZ/aO3jXzlh1i2IeLI+KdiHgn/nfq6tiefGfDa9k6uvRpFRGbYsmarenTOolx2Xrr9YWx8PXyxGxr1da49ZGbYkH5vMQcyD0LyufFrY/ctMum3JqlFfHW6wsTMwAg/wlyAAAAe9EQUW7nhtmUGfGbiWt2DWjbl8ft594QI785IyaVVu7Yjnv5jbj59iURRcfE1ed2q/UD3CFxwgXHxuhYF6NjXUz8t2fjoXfr3pKrj+2lM+LcFt+KFsV/jUnrdhMLqzbE/GmrIqJLDO3fLn26CzEuey/8+dX0KB6YdJcYB3lkQfm8+OPT96fHdX5/AwD5TZADAACohwOOci17xKd+9KE4K5bE7ZdMiG9PWB6JnYiN2yL6tIkpN/whzj7qlrj8v56ML338sZgSneKsfz0xRh96UO1XR8uSY+JHNw6OH904OKJ8elzyub/FhNLKxGt2VRmlj7wej7+VnO6MheWz4/d/qyMWRnWsn/X2jveddXSMPKp1+gUJYlz2Fs0rjzVLKxKz+WWlblMJeWjaa5NifllpYmZLDgAKz0HXX3/99ekhAAAAuzrxxBOiZUTMfPmVxHzmy6ujZWyLE0/smZgntYg2xYfGuR9qGTPvnhG/f+CNmL7p4OjarVOUFB8cLdp0iBM+cUpcfdz6+NkDc2PWk/Nj1vqIojEXxIP/flQUt2mR+nyto/i4PlF80sDo9+6CeOTh1+OBX82Jtzu0jZYHt9/xOd975fbyd+ORJ+bEHV/8fVx6w9xYEBFFYz4Q3/hEcfRo0yKiRdvo1X5N3PfAnHjmmU3R5YP94tRDa95fGaVPPB/f+tRj8fD6PnHlzz4cVw07ZOfnThPjGser0+bGsneSz556YNJdsXRVWWIG5IeylYvjjKEjE7OD2rSMI445LDEDAPJXi+rq6t3cjwQAAIC6jBt3R9w67o70OK4ae0SMHTskPU7ZFuUvvBDfuujhuDv5+K/dGBTX3Tk6vnbZYVG0u3ucbK+ImfdMjW98/qmYkj5LKzoxbrxrVFzz4R7RIXFQGXNufzxGjX0x6v6yBsV14y+I713cM/W+94lxjee+Gx9LbMgtW70krr/9XxOvAfLLd8b8OPr27L/zum2HNnHF9ZckXgMA5C9BDgAAYD8cWJR7L6I9uiBmPftCjL3hzVoHfWLMjWfFhUe0ilizKG4e+15kKzo9xr94flycunVlwvoVMWlieSx4Pv05B8V1406JUwcUxehR6RBX27Yon/lm/PmBabXe3yfG3DgyLr/gqBhV0jb1+veJcY1ny+atMe67f0jMnv/7M3HXn/8nMQPyy6fP/nycefzoxGzM9y+M9p32/txOACD3CXIAAAD76YCjXD1sL383Hv3zq3HTPR3jp4+eEcM77O5mkU1HjGtcSxeviAk3PZGYPfT0fTHxxUcTMyC/jD7543HRhy5NzC7+2oejd98eiRkAkJ92d8MTAAAA9mLs2CviqrFXpMdx67j5MW7c7PR4v7QsOjQuvPK8mDx5hBjHbm2o3JAeAXmmdHHD/HMDAMhNghwAAMABaIwol6vEuNwx7bVJ6RGQZxaUz0uPAIACIsgBAAAcoOYY5cQ4AACA+hPkAAAAGkBzinJiHAAAwL4R5AAAABpIc4hyYhwAAMC+E+QAAAAaUCFHOTEOAABg/whyAAAADawQo5wYBwAAsP8EOQAAgAwUUpQT4wAAAA6MIAcAAJCRQohyYhwAAMCBE+QAAAAylM9RTowDAABoGIIcAABAxvIxyolxAAAADUeQAwAAaAT5FOXEOAAAgIYlyAEAADSSfIhyYhwAAEDDE+QAAAAaUS5HOTEOAAAgG4IcAABAI8vFKCfGAQAAZEeQAwAAaAK5FOXEOAAAgGwJcgAAAE0kF6KcGAcAAJA9QQ4AAKAJNWWUE+MAAAAahyAHAADQxJoiyolxAAAAjUeQAwAAyAGNGeXEOAAAgMYlyAEAAOSIxohyYhwAAEDjE+QAAABySJZRTowDAABoGoIcAABAjskiyolxAAAATUeQAwAAyEENGeXEOAAAgKYlyAEAAOSohohyYhwAAEDTE+QAAABy2N6i3J7CnBgHAACQGwQ5AACAHLenKLe7bTkxDgAAIHcIcgAAAHlgd1Eu6riFpRgHAACQWwQ5AACAPFGfKCfGAQAA5B5BDgAAII/sLcp94h+miHEAAAA5RpADAADIM3uKcmliHAAAQNMT5AAAAPJQTZTbU5gT4wAAAHKDIAcAAJCnxo69YrfbcmIcAABA7hDkAAAA8lztKPfV6QfFV6cfFJ95eJUYBwAAkCMEOQAAgAKwu005AAAAmp4gBwAAUCDGCnIAAAA5SZADAAAAAACADAlyAAAAAAAAkCFBDgAAAAAAADIkyAEAAAAAAECGBDkAAAAAAADIkCAHAAAAAAAAGRLkAAAAAAAAIEOCHAAAAAAAAGRIkAMAAAAAAIAMCXIAAAAAAACQIUEOAAAAAAAAMiTIAQAAAAAAQIYEOQAAAAAAAMiQIAcAAAAAAAAZEuQAAAAAAAAgQ4IcAAAAAAAAZEiQAwAAAAAAgAwJcgAAAAAAAJAhQQ4AAAAAAAAyJMgBAAAAAABAhgQ5AAAAAAAAyJAgBwAAAAAAABkS5AAAAKARbVy1OjauWp0eAwAABUyQAwAAgEbUrlvXePLKb8eLv7pDmAMAgGZCkAMAAIBGNuzasfHmV+6Oh7pfLMwBAEAzIMgBAABAI+t3xsnR8cKjIiKEOQAAaAYEOQAAAGgCw64dm7gW5gAAoHAJcgAAANAEam/J1SbMAQBA4RHkAAAAoImkt+RqE+YAAKBwCHIAAADQRHa3JVebMAcAAPlPkAMAAIAmtKctudpqwtycO/83WlZuTB8DAAA5rEV1dXV1eggAAEB+urfFyPSIArV11LCoHDI0trdtF1/82WfTx0Ae+s3/uTdxffHXPhy9+/ZIzACA/GRDDgAAAPJQ60mzou3s19JjAAAgBwlyAAAAkGe2jhoWFV/6XGw84dT0EQAAkIPcshIAAACa0Iu/uiPe/Mrd6XGdBt08Jnqd9aH4050vJOZuWQmFwS0rAaBw2ZADAACAJrJx1ep6xbhBN4+Ji1ZOiJO/fEW07dI5fQwAAOQ4QQ4AAACayBv3PpQeJdQOce26dU0fAwAAeUKQAwAAgCawp+04IQ4AAAqLIAcAAABNoK7tOCEOAAAKkyAHAAAAjSy9HSfEAQBAYRPkAAAAoJHVbMcJcQAA0DwIcgAAANCINq5aHREhxAEAQDMiyAEAAEAjatetqxAHAADNjCAHAAAAAAAAGRLkAAAAAAAAIEOCHAAAAAAAAGRIkAMAAAAAAIAMCXIAAAAAAACQIUEOAAAAAAAAMiTIAQAAAAAAQIYEOQAAAAAAAMiQIAcAAAAAAAAZEuQAAAAAAAAgQ4IcAAAAAAAAZEiQAwAAAAAAgAwJcgAAAAAAAJAhQQ4AAAAAAAAyJMgBAAAAAABAhgQ5AAAAAAAAyJAgBwAAAAAAABkS5AAAAAAAACBDghwAAAAAAABkSJADAAAAAACADAlyAAAAAAAAkCFBDgAAAAAAADIkyAEAAAAAAECGBDkAAAAAAADIkCAHAAAAAAAAGRLkAAAAAAAAIEOCHAAAAAAAAGRIkAMAAAAAAIAMCXIAAAAAAACQIUEOAAAAAAAAMiTIAQAAAAAAQIYEOQAAAAAAAMiQIAcAAAAAAAAZEuQAAAAAAAAgQ4IcAAAAAAAAZEiQAwAAAAAAgAwJcgAAAAAAAJAhQQ4AAAAAAAAyJMgBAAAAAABAhgQ5AAAAAAAAyJAgBwAAAAAAABkS5AAAAAAAACBDghwAAAAAAABkSJADAAAAAACADAlyAAAAAAAAkCFBDgAAAAAAADIkyAEAAAAAAECGBDkAAAAAAADIkCAHAAAAAAAAGRLkAAAAAAAAIEOCHAAAAAAAAGRIkAMAAAAAAIAMCXIAAAAAAACQIUEOAAAAAAAAMiTIAQAAAAAAQIYEOQAAAAAAAMiQIAcAAAAAAAAZEuQAAAAAAAAgQ4IcAAAA5LkBRQPTIwAAIIcIcgAAAJDnSvoOSY+APHPG0FHpEQBQQAQ5AAAAyCNtDm6dHsUhB7dLj4A8075t+/QIACggghwAAADkka49O6dHMegwG3KQ747qf2x6FL379kiPAIA8JcgBAABAnul3bFHiuk+34sQ1kH/69z48cd37iO6JawAgvwlyAAAAkGeOOPawxHW7th3i02d/PjED8sfokz8e7dp2SMz6lvRJXAMA+U2QAwAAgDzTryS5IRcRcfLgD6RHQJ4468Rz06MYNKx/egQA5DFBDgAAAPJM+07t4tgzByVm7dp2iK/8w7cTMyD3XXXB16NLh26JWckp/et8XiQAkL8EOQAAAMhDJ555dHoUQ/oPdetKyCMXjvh0HD/o5PQ4TvvI8ekRAJDnBDkAAADIQ+07tYsPXLTrv7Q/8/jRcfl5/5weAznm02d/Ps499cL0OIZ/5Jho36ldegwA5LkW1dXV1ekhAAAAkB8ev3NKLHy9PD2OxcvficefHR+z5s1IHwFNaEDRwPiHsz4XRxSXpI+i9xHd4+Ivjk6PAYACIMgBAABAHtuyeWs8Nm5yLJ2/Mn0UW6u2xhtvvxJvvD0rpr02KX0MNKIzho6KYw4fFsccfny0btU6fRxtO7SJf/z2BdHm4F3PAID8J8gBAABAntuwbmP89XdT64xyNTZWro/1m9ZH2YpF6SMgQ8U9DosOh3SIdm07pI926n1E9xj5yVOja8/O6SMAoEAIcgAAAFAAtmzeGs9PnBWvP/Vm+gjIYSWn9I8PXniyzTgAKHCCHAAAABSQt15fGC/8+dVYs7QifQTkkC69O8Yp5x0XRx7bL30EABQgQQ4AAAAK0OwZb8Urk2cLcwWi889u3fnrtf/nqsQZ+aVL745x9OlHxpCTB9qKA4BmRJADAACAArZ6+dpYOLcsVpStjsqNW2Ld8vUiXR4S5PJTl94do1PPDtG2XZvoUdw1+h1V7DlxANBMCXIAAAAAOe7eFiN3/vqz1ZMTZwAA5L6W6QEAAAAAAADQcAQ5AAAAAAAAyJAgBwAAAAAAABkS5AAAAAAAACBDghwAAAAAAABkSJADAAAAAACADAlyAAAAAAAAkCFBDgAAAAAAADIkyAEAAAAAAECGBDkAAAAAAADIkCAHAAAAAAAAGRLkAAAAAAAAIEOCHAAAAAAAAGRIkAMAAAAAAIAMCXIAAAAAAACQIUEOAAAAAAAAMiTIAQAAAAAAQIYEOQAAAAAAAMiQIAcAAAAAAAAZEuQAAAAAAAAgQ4IcAAAAAAAAZEiQAwAAAAAAgAwJcgAAAAAAAJAhQQ4AAAAAAAAyJMgBAAAAAABAhgQ5AAAAAAAAyJAgBwAAANDE/vpP34qF015Mj/fJitL5Me1HN8fWTZXpIwAAmpggBwAAANDE+p33oZg64rp49KJr9jnMrSidH5Ov+1FMPGpsdBt8ZLQ+pG36JQAANLEW1dXV1ekhAAAAAI1n66bKePjMMbHlxeUREdHxwqNi2LVjo98ZJ0dExL0tRu587WerJ0e8F+Jeu+3+KL/xiYiIaHNyz7jwqbsFOQCAHGRDDgAAAKCJtT6kbRzzrc/vvK54eO5uN+Zqb8TVxLiIiGO+9XkxDgAgR9mQAwAAAMgB6S25fWE7DgAgt9mQAwAAAMgB6S25fWE7DgAgtwlyAAAAADli4Hmjos3JPdPjPWpzcs8YeN6o9BgAgBwiyAEAAADkiP3ZkrMdBwCQ+wQ5AAAAgByyL1tytuMAAPKDIAcAAACQQ/ZlS852HABAfhDkAAAAAHJMfbbkbMcBAOQPQQ4AAAAgx9RnS852HABA/hDkAAAAAHLQnrbkbMcBAOQXQQ4AAAAgB+1pS852HABAfhHkAAAAAHJUXVtytuMAAPKPIAcAAACQo1of0jb6XnVhYmY7DgAg/whyAAAAADmqrKwsfv7w+NjaYcd1q2FdbccBAOQhQQ4AAAAgB5WVlcU1X/xKvLNyRcw9tDoiIv5+cGUsX70q/VIAAHKcIAcAAACQY2pi3NJlyyMi4rku22Njt4inW6yPa774lSgrK0u/BQCAHNaiurp6x2+xAgAAAKDJpWNcjZ5VEctb7fh1714945bf3BzFxcWJ1wAAkJsEOQAAAIAcsbsYVxdRDgAgf7hlJQAAAEAO2FOMW71qZWzfvj0xW7psudtXAgDkCUEOAAAAoIntKcYtXVIWb879e7yz4C1RDgAgTwlyAAAAAE1obzHunbffioiI5UuXiHIAAHlKkAMAAABoIvWNcTVEOQCA/CTIAQAAADSBfY1xNUQ5AID8I8gBAAAANLL9jXE1RDkAgPwiyAEAAAA0ogONcTVEOQCA/CHIAQAAADSShopxNUQ5AID8IMgBAAAANIKGjnE1RDkAgNwnyAEAAABkLKsYV0OUAwDIbYIcAAAAQIayjnE1RDkAgNwlyAEAAABkpLFiXA1RDgAgNwlyAAAAABlo7BhXQ5QDAMg9ghwAAABAA2uqGFdDlAMAyC2CHAAAAEADauoYV0OUAwDIHYIcAAAAQAPJlRhXQ5QDAMgNghwAAABAA8i1GFdDlAMAaHqCHAAAAMABytUYV0OUAwBoWoIcAAAAwAHI9RhXQ5QDAGg6ghwAAADAfsqXGFdDlAMAaBqCHAAAAMB+yLcYV0OUAwBofIIcAAAAwD7K1xhXQ5QDAGhcghwAAADAPsj3GFdDlAMAaDyCHAAAAEA9FUqMqyHKAQA0DkEOAAAAoB4KLcbVEOUAALInyAEAAADsRaHGuBqiHABAtgQ5AAAAgD0o9BhXQ5QDAMiOIAcAAACwG80lxtUQ5QAAsiHIAQAAANShucW4GqIcAEDDE+QAAAAAUpprjKshygEANCxBDgAAAKCW5h7jaohyAAANR5ADAAAAeI8YlyTKAQA0jBbV1dXV6SEAAABAcyPG7V7P3n2i/4Ajo2XL5O/t7t2rZ9zym5ujuLg4MSd7y1ZtiDkLVkbpwtWxbE1llK/elH4JkLGBRR2jf++OcWTfLtG/qHN06nBw+iUAOwlyAAAAQLMnxu2dKJcbXntzWTw67W0BDnLQ6UN6xjmnDIhe3dqnjwAEOQAAAKB5E+PqT5RrOm8uXBkPTponxEEeOPv44hh1cn8bc0CCIAcAAAA0W2LcvhPlGt9fp8+Px55bmB4DOaxD21bxxU8MjcP6dE4fAc2UIAcAAAA0S2Lc/hPlGsfmLVVxz5/eiFlvr04f7VS5sSKWL5obW7fYnIPG1ql7UXTp2S9atW6TPtrpqvOPjqGDeqXHQDMkyAEAAADNjhh34ES57N320KzdxrhFc2fEa88+HPNfm5o+AhrZ6R/7Qhx53JnRpWff9FGEKAe8J/n/mAAAAACagWeemVpnjKus3CTG1dPypUuictOuW1lLly2PZ54RiQ7UX6fPrzPGrVm+OP50x/fi4d9eK8ZBjpj++G3xux9fFjOf/H1Ubd2SPo57/1Yay1ZtSI+BZuag66+//vr0EAAAAKCQHXvsMdEyIma+/Epi3qpV6+jcpWssX7Y0MWdXRx87LNp36Jgex1Vjr4jLLvtcesw+eHPhyrjniTfT41g0d0Y8eNM/x+plnicHuWjxmy/FqqULouiI46JN23Y751uqtsebC1fHKUf3iVYH2ZGB5sp3PwAAANAsjR17RVw19or0ODp07BRHHzssPaaWo48dFh06dkqP46qxV8TYOv6csm8enDQvPYpFc2fEw7+9Nj0Gcsz816bGn+/8flRurEjMy1dviudfL0vMgOZFkAMAAACaLVFu34lx2XrtzWVRvjp5K9A1yxeLcZBHlr4zO6Y/dusut6/88/MLY/OWqsQMaD4EOQAAAKBZE+XqT4zL3qPT3k6P4tnHfpseATnujecei4Vznk/M1ldW2ZKDZkyQAwAAAJo9UW7vxLjsLVu1YZftuEVzZ8T816YmZkB+mDnpvl225Ka+Wp64BpoPQQ4AAABAlNsjMa5xzFmwMj2K1559OD0C8sTSd2ZH+fxXE7Py1Zti3frNiRnQPAhyAAAAAO8R5XYlxjWe0oWrE9eVGytsx0GemzfrqfQo3ilfmx4BzYAgBwAAAFCLKPc+Ma5xvVVekbhevmhu4hrIP28891h6FKsrKtMjoBkQ5AAAAABSRDkxrimsr6xKXG/dknyeHJCfKjcmYzvQPAlyAAAAAHVozlFOjMsNG9bt+kw5IP9UbkjeonLxMoEOmiNBDgAAAGA3mmOUE+NyR8XqZekRUAA2prZhgeZBkAMAAADYg+YU5cQ4AIBsCHIAAAAAe9EcopwYBwCQHUEOAAAAoB4KOcqJcQAA2RLkAAAAAOqpEKOcGAcAkD1BDgAAAGAfFFKUE+MAABqHIAcAAACwjwohyolxAACNR5ADAAAA2A/5HOXEOACAxiXIAQAAAOynfIxyYhwAQOMT5AAAAAAOQD5FOTEOAKBpCHIAAAAABygfopwYBwDQdAQ5AAAAgAaQy1FOjAMAaFqCHAAAAEADycUoJ8YBADQ9QQ4AAACgAeVSlBPjAABygyAHAAAA0MByIcqJcQAAuUOQAwAAAMhAU0Y5MQ4AILcIcgAAAAAZaYooJ8YBAOQeQQ4AAAAgQ40Z5cQ4AIDcJMgBAAAAZKwxopwYBwCQuwQ5AAAAgEaQZZQT4wAAcpsgBwAAANBIsohyYhwAQO4T5AAAAAAaUUNGOTEOACA/CHIAAAAAjawhopwYBwCQPwQ5AAAAgCZwIFFOjAMAyC+CHAAAAEAT2Z8oJ8YBAOQfQQ4AAACgCe1LlBPjAADykyAHAAAA0MTqE+XEOACA/CXIAQAAAOSAPUW5E08+XYwDAMhjghwAAABAjthdlGvVqlV6JMYBAOQRQQ4AAAAgh+wuytUmxgEA5BdBDgAAACDH7CnKiXEAAPlHkAMAAADIQbWj3FenH7TzQ4wDAMg/ghwAAABAjtrTphwAAPlDkAMAAADIYTbiAADynyAHAAAAAAAAGRLkAAAAAAAAIEOCHAAAAAAAAGRIkAMAAAAAAIAMCXIAAAAAAACQIUEOAAAAAAAAMiTIAQAAAAAAQIYEOQAAAAAAAMiQIAcAAAAAAAAZEuQAAAAAAAAgQ4IcAAAAAAAAZEiQAwAAAAAAgAwJcgAAAAAAAJAhQQ4AAAAAAAAyJMgBAAAAAABAhgQ5AAAAAAAAyJAgBwAAAAAAABkS5AAAAAAAACBDghwAAAAAAABkSJADAAAAAACADAlyAAAAAAAAkCFBDgAAAAAAADIkyAEAAAAAAECGBDkAAAAAaAB//advxewJf4qtmyrTRwBAMyfIAQAAAEADGPL5S+LlS26Mh88cI8wBAAmCHAAAAAA0gH5nnBwdLzwqtry4XJgDABIEOQAAAABoIMOuHbvz18IcAFBDkAMAAACABlKzJVebMAcACHIAAAAA0IBqb8nVJswBQPMlyAEAAABAA6prS642YQ4Amh9BDgAAAAAa2O625GpLh7lWW7ekXwIAFIgW1dXV1ekhAAAAALnj3hYj0yMK0LbDOsTSs8+Kd4cMjarWbeLZx26Nlybdl34ZkGc+9+17okvPvjuvhx3eNb5w0bDEa4DCZ0MOAAAAAHLAQYvWR/Gdj8WJv7o52m5cnz4GAPKYIAcAAAAAOWLlxSPi1auvjsp2HdJHAEAec8tKAAAAAGhgK0rnx8Sj9v4cuRqDbh4TD6ztmQhxblkJhcEtK4GwIQcAAAAADe+12+5Pj+o06OYxcdHKCXHyl6+wFQcABUyQAwAAAIAGtKJ0fpTf+ER6nFA7xLXr1jV9DAAUGEEOAAAAABrQnrbjhDgAaJ4EOQAAAABoILvbjhPiAKB5E+QAAAAAoIGkt+OEOAAgBDkAAAAAaBi1t+OEOACgNkEOAAAAABrAa7fdL8QBAHUS5AAAAACgAZz6rX8W4gCAOglyAAAAANAAhDgAYHcEOQAAAAAAAMiQIAcAAAAAAAAZEuQAAAAAAAAgQ4IcAAAAAAAAZEiQAwAAAAAAgAwJcgAAAAAAAJAhQQ4AAAAAAAAyJMgBAAAAAABAhgQ5AAAAAAAAyJAgBwAAAAAAABkS5AAAAAAAACBDghwAAAAAAABkSJADAAAAAACADAlyAAAAAAAAkCFBDgAAAAAAADIkyAEAAAAAAECGBDkAAAAAAADIkCAHAAAAAAAAGRLkAAAAAAAAIEOCHAAAAAAAAGRIkAMAAAAAAIAMCXIAAAAAAACQIUEOAAAAAAAAMiTIAQAAAAAAQIYEOQAAAAAAAMiQIAcAAAAAAAAZEuQAAAAAAAAgQ4IcAAAAAAAAZEiQAwAAAAAAgAwJcgAAAAAAAJAhQQ4AAAAAAAAyJMgBAAAAAABAhgQ5AAAAAAAAyJAgBwAAAAAAABkS5AAAAAAAACBDghwAAAAAAABkSJADAAAAAACADAlyAAAAAAAAkCFBDgAAAAAAADIkyAEAAAAAAECGBDkAAAAAAADIkCAHAAAAAAAAGRLkAAAAAAAAIEOCHAAAAAAAAGRIkAMAAAAAAIAMCXIAAAAAAACQIUEOAAAAAAAAMiTIAQAAAAAAQIYEOQAAAAAAAMiQIAcAAAAAAAAZEuQAAAAAAAAgQ4IcAAAAAAAAZEiQAwAAAAAAgAwJcgAAAAAAAJAhQQ4AAAAAAAAyJMgBAAAAAABAhgQ5AAAAAAAAyJAgBwAAAAA56OBD2qdHAECeEuQAAAAAIAd17dUvPQLyUKs2bRPXJf26Jq6B5kGQAwAAAACAjHTo3CM9ApohQQ4AAAAAcsCww5NbM736DUlcA/nniKEj0qPo2jG5MQc0D4IcAAAAAOSAw3p3TFx36NwjevcX5SCfHTH0g+lR9O7u+ZDQHAlyAAAAAJADjji0c3oUQ8+4KD0C8siAo09PXHdo2yp6dRPkoDkS5AAAAAAgBwzq1z06tG2VmA0cdpYtOchTZ17y1WjbLrn5eurgXolroPkQ5AAAAAAgR5x3ar/EdavWbeK0j1yZmAG5r3f/ITHohLPT4xh1cv/0CGgmWlRXV1enhwAAAABA49u8pSquH/dcrK+sSsxfm/ZQPDX+l4kZkLs+9+17okvPvonZ2ccXx0UjSxIzyNrKimWxuaoyPd5Fj469o02rg9NjGpAgBwAAAAA55OmXFsaDT81Pj0U5yAO9+w+JERd+MYoGHJuYd2jbKr592cnRqYPgQcOpiW2LVs2PzVs3RfnahRERUbr8pfRL90mP9sXRrV2faNu6XfTpfFh0PqRrdDqkq2h3gAQ5AAAAAMgxtz00K2a9vTo9jvmvPRN/uuP76TGQA44YOiI+dPFXo0PnHumjuOr8o2PoIM+PY/+trFgWi1e9HUvXLY6ytQti0ZrS9EsaRU2sG9DjqOjVsTgO7dZfpKsnQQ4AAAAAcszmLVVxy4RZMa+8In0UlRsr4s2Xn7QtBzmid/8hMXzUpXHE0A+mjyIi4vzT+sW5px+RHsMe1QS4BStLY97yWbFx667/PMgVh3UpiSN6HB2HdTtSoNsDQQ4AAAAActCyVRvitkdej/LVm9JHERFRtXVLLH+3NMremhWbN21IHwMZ69ZnQPTpf/Quz4qrzXPj2BdvLyuNN5e+Fm+teD1WbChLH+eNkp4nxuA+x8cRvQdHx7ad08fNliAHAAAAADlqT5tyQG677MMlccqxxekxJNREuNfKph/QFty6lRti6+aqWLO0IrZUVsXmTVtj2cJViddsWr85Zv51TkRE9C3pFQOGFiXO27Y/OHr27RIREV37dIzWB7eKzj06RKs2ByVety8O61ISJxw2QpwT5AAAAAAg9z390sJ48Kn56TGQg4q6HhKfHDUwBvXrnj6CiIioqFwbLy94Nt4of2GfN+E2rd8ca5evj9VLKmL54jXx7pvLYvb0BemXNaiaeNerX7fo2PWQ6Nmva3Tq3j79sr06rnhEHNf31Di8V/PcGhXkAAAAACAPrFu/OSa9+E48+cq+/ctbcsfp//of6VFEREz/+b+nR+ShDm1bxWfPKYmhg3qljyDivW24Vxc/H6+WTU0f7dam9Ztj+aI1sWT+inhr1ruZx7d9MeKSYXHYUb2jV/+u0b24/ttvPdoXx4n9zowT+p/erJ43J8gBAAAAQB5Zt35zzFmwMl6dtzxmvb06fUwOE+QKT1HXQ+Lo/l3jyL5dhDh2a07ZrJg896F6b8MteXtlLHl7Vcx+7u2cCnB7c86YU+LQgT2ieFDPOKRD/ULbqf1Hx+mDzmkWt7MU5AAAAAAgj61bvznWrq9Mj8lBzxRdlB5FRMQHyx9Kj8gDh/Up/IDAgdmXELfk7ZWx8O9L4pVJb8bi0mXp47wz/NzBcewZR9Q7zjWHMCfIAQAAAAA0gntbjNz5689WT06cAYWjviFu0/rNMfeFhXm3CbevzhlzSpScdFj0OXzvz1Us5DAnyAEAAAAANAJBDgrb28tK4y9v3LfXELfk7ZXx6lPzYur4Wemjgjbk9AFx/MiSGDC0aK9bc2cOvChOGziqoJ4xJ8gBAAAAADQCQQ4KU0Xl2vjTrPujdPlL6aOEhbOXxrQ/zirobbj6Ov+aM2LomQP3GObate4Y5wz+ZAzrf2r6KC8JcgAAAAAAjUCQg8KypWpzvPzO9Jg4+7700U5VW7bFmzMXxTN/eKUgng3X0OoT5g7rUhIfH3ZZdO/YK32UVwQ5AAAAAIBGIMhB4ShbvTAefuWOPd6ecuHspfGX26YLcfVQnzCX77exFOQAAAAAABqBIAf5b0vV5nhu3qR4at5D6aOdlry9MibfN9OtKffDxV8fGceOOCJatTkofRQRET3aF8enTvrnvNyWE+QAAAAAABqBIAf5bWXFsnh01j2xaE1p+igiIjat3xzP/OGVmDp+VvqIfdC3pFec/bmT4sgT+qaPdho95NI49ciz0uOcJsgBAAAAADQCQQ7y16x3no9HXrs9Pd5p9vQFcd+PJqbHHIDh5w6OkZcOj07d26ePIiKipOeJ8Ynhn8+bW1gKcgAAAAAAjUCQg/yzpWpz/PnVB+LVsqnpo4iIWLdyQ0y+b2bM/Ouc9BEN5NLvjI4hpw9IjyMiol3rjnHpKf8SxV37pY9yjiAHAAAAANAIBDnIL3u7RaWtuMazt225C4ZeGcP6n5oe5xRBDgAAAACgEQhykD/KVi+M+17479i4tSJ9FJvWb46Jdz5vK64JXP5/P7rbZ8ud2n90jB56SXqcMwQ5AAAAAIBGIMhBfphTNisefOk36XFERCx5e2U88qtnYnHpsvQRjeScMafEBy4cGq3aHJQ+isO6lMRnT/tyTj5XrmV6AAAAAAAA0Bw9/9aU3ca4Vya9Gb/5l/FiXBP7290vxIM/fTLWrdyQPopFa0rj3ud+FRWVa9NHTU6QAwAAAAAAmr2Jr42PibPvS4+jasu2mHjn8zHhFzZbc8Xs6Qvi/h89EUveXpk+ikVrSuPWp34QKytyK5wKcgAAAAAAQLM28bXx8fw7E9PjWLdyQzx+67SYOn5W+ogmtrh0WfzmX8bHWy8vTh/Fxq0VceezN+RUlBPkAAAAAACAZmtPMe7+Hz0RM/86J31EDrnr+3+KFx5/Iz3OuSgnyAEAAAAANIAXf3VHLJz2Ynq8T1aUzo/J1/0o1i4uTx8BGdhdjFtZtjbu/9ETnheXJx67ZVrORzlBDgAAAACgARw++syYOuK6ePSia/Y5zNWEuIlHjY2IiM59i9IvARrY7mLcwtlL45dX/68Yl2ceu2VaTLzz+ajasi0xz5UoJ8gBAAAAADSAHiVHRNG1H46Kh+fWO8zVDnHlNz4RERFDv/CZ9MuABvb8W1N2G+Nuu+7h9Jg8MXX8rHj81ml1RrkHZvxPbKnanJg3JkEOAAAAAKCB1I5pewpzdYW4iIiiaz8cPUqOSLwWaFhzymbFxNn3pcdiXIGY+dc5dUa5FRvK4t7nftVkUa5FdXV1dXoIAAAAAMD+mXzdjxKRbV+MnjtOkIMMla1eGOOm/TA9jiVvr4zf/Mv49Jg8ds6YU+JDnzw+PY7jikfEhSdelh5nzoYcAAAAAEAD2t9bTtqOg2ytrFgW973w3+lxrFu5IR751TPpMXnub3e/EC88/kZ6HK+WTY2n5/w5Pc6cIAcAAAAA0IBqniW3r/Y35AF7t6Vqczw6657YuLUiMV+3ckPc/6MnYnHpssScwvDYLdPilUlvpsfx1LyHYk7ZrPQ4U4IcAAAAAEAD29e4ZjsOsvXnVx+IRWtKE7OqLdti8n0zxbgCN+EXk2Ph7KXpcTz+2j2xsqLx/rcX5AAAAAAAGti+bsnta8AD6m/WO8/Hq2VT0+N4/NZpMfOvc9JjCtBt1z0cK8vWJmYbt1bEAzP+J7ZUbU7MsyLIAQAAAABkoL6RzXYcZGdlxbJ45LXb0+N44fE3xLhmZvzPJsem9cn4tmJDWfz51QcSs6wIcgAAAAAAGajvllx9wx2wb7ZUbY4HZvxPehwLZy+Nx26Zlh5T4BaXLouJdz6fHserZVMb5XlyghwAAAAAQEb2Fttsx0F2nps3KVZsKEvM1q3cEH+5bXpiRvMx869z4pVJb6bH8fhr90RFZfKWlg1NkAMAAAAAyMjetuT2FuyA/VO2emE8Ne+h9Dgm3zczFpcuS49pRib8YnIseXtlYrZxa0X8adb9iVlDE+QAAAAAADK0u+hmOw6ysaVqczz8yh3pcbwy6U3PjSMiIh751TNRtWVbYla6/KWY9c6ut7RsKIIcAAAAAECGdrclt7tQBxyYum5VubJsbUz4xeTEjOZrcemymHTvjPQ4/jbnwdhStTk9bhCCHAAAAABAxo667BOJa9txkI2VFct2uVVl1ZZtMfHO7DafyE9Tx8+KhbOXJmYbt1bEn199IDFrKIIcAAAAAECGKisr42d33RHLi6t3zmzHQTb+9vc/pkfx+tT5MXv6gvQY4i+3Td/l1pWvlk2NstULE7OGIMgBAAAAAGSksrIyvvtv34+pzz4XM3rvCHKrBraOLR3apl8KHKA5ZbOidPlLidm6lRvcqpLdWly6LF56YtfnCk5848H06IAJcgAAAAAAGagd4yIiSttWx/Li6ni+4+a45otfibKy5DOugAMzeW7yVpUREc89+np6BAmP3TItVpatTcwWrSmNOWWzErMDJcgBAAAAADSwdIyr8cSh26O0bXUsXbZclIMG9PxbU2LFhuT308LZS2Pq+IaNKhSmqRN2/eukrsB7IAQ5AAAAAIAGtLsYFxGxvNX7vxbloGFsqdocU+c9lphVbdkW0/64a2SBusz865xYOHtpYrZiQ1k8/9aUxOxACHIAAAAAAA1kTzFu9aqVsX379sRMlIMD9/I702Pj1orE7M2Zi2L29AWJGezJtD/Oiqot2xKzqfMeiy1VmxOz/SXIAQAAAAA0gD3FuKVLyuLNuX+Pdxa8JcpBA9rddtwzf3glMYO9mT19Qbw5c1FitnFrRbz8zvTEbH8JcgAAAAAAB2hvMe6dt9+KiIjlS5eIctCAdrcdt7h0WWIG9fHMH17ZZUvupYVPJa73lyAHAAAAAHAA6hvjaohy0HDSscR2HAdicemyXbbkVmwoizllB/48QkEOAAAAAGA/7WuMqyHKwYGbUzYrVmxIfq/YjuNA1RV0J899KD3aZ4IcAAAAAMB+2N8YV0OUgwPz3Py/pUfxyuTS9Aj2yeLSZbFw9tLEbMWGsihbvTAx21eCHAAAAADAPjrQGFdDlIP9s7JiWSxak4xvC2cvjdnTFyRmsD+m/XHXW1S+vvjF9GifCHIAAAAAAPugoWJcDVEO9t3MBc+kR/Hyk3PTI9gvs6cviJVlaxOz59+ZGFuqNidm+0KQAwAAAACop4aOcTVEOdg3r5VNT1yvW7khZv51TmIGB+KNaW+nRzH73V2fL1dfghwAAAAAQD1kFeNqiHJQP3PKZsXGrRXJ2XNuVUnD+tvdL0TVlm2J2cuLpiau94UgBwAAAACwF1nHuBqiHOzd3CWvpkfxyqQ30yM4YO+8UZ64XrSmNCoqk7eyrC9BDgAAAABgDxorxtUQ5WD3tlRtjlfLkltKC2cvjcWlyxIzaAivT5ufHsXLC55Nj+pFkAMAAAAA2I3GjnE1RDmo2/xluz4nbsHryS0maCgz/zonNq3fnJi9Uf5C4rq+BDkAAAAAgDo0VYyrIcrBrtK3q6zasi3+dvf+BRKoj7I3lyeuV2wo26/bVraorq6uTg8BAAAAAJqzysrK+M7Xr4rHJk2N1QvejhVbak7aRNvOnaNybfJf0GapZ+8+0X9Acayc+3q8vWbnF7KrMeOj7K6Loyg9hwLys79+IzZurdh5vXD20rjtuocTr4GGNPzcwXHhlz+UmF0w9MoY1v/UxGxvbMgBAAAAANRSuXFBjD3vpPjVLffEm6W1Y1xExJZGjXFRsyn39oLYtGEPMQ6agbLVCxMxLiJiyfwViWtoaHXdtnLOklcS1/UhyAEAAAAAvKdyxcy48OST494pb8TW6BpFRx4TxwwfEaec/sHof/iR6Zc3muXLVsXyrRHRY3CccPoH45RaHx+/8OJ49913o9p2HAVu3tI30qN4ZdKb6RE0uPRtK0uXv5S4rg9BDgAAAAAgIiorl8YXLvlUTPz7iohO/WPw8GPisF7don2bFo3yzLi92RYRbbasiIM8U45mav6Kvyeu163cEItLlyVmkIV35+26iVm2emF6tEeCHAAAAADQ7FVWVsZ3vvT5eOzp+RFtimLQoMOiU5sWERE5EeNqbFm3It5Z8FZsF+VoZrZUbY5Fa0oTs3dLG/f2sTRfc55bkB7FolXz06M9EuQAAAAAgGatsrIyvvtv34knn5oRa6NNdCzqnZMxrsbypUtEOZqdFRVL06NYNHfXGWRhcemyWLdyQ2K2YMXcxPXeCHIAAAAAQLO1I8Z9P6Y++3RUrFwXEZ2iR7f2cVCOxrgay5cuiRnPT4sXZsyN8pVro3JbdYQoRwGraxtp6vhZ6RFkZvnC1YnrfX2OnCAHAAAAADRL78e45yK2bYnKjVsionW0apkbz4yrl63LYlHpq/HqnEWxbosoR+FKbyOlt5Uga3U9R25lRf2fYSjIAQAAAADNTiLGRURsq4qtWyKibdtYv6o8P2Lcezp3PCRar3sn5rxZFhtsylGgFq95M3Gd3laCrL375q7xbXlFeXq0W4IcAAAAANCs7BLjaqtaF+V5FOMiItZWbIpDDmkVsW5ZrFpftXMuylEotlRtjo1bKxKzitWbEteQtdnTF0TVlm2J2dpN9Q/DghwAAAAA0GzsNsYd1Cq2HBQRVSuT8zyxblNVRKyPFWvWR+1/XSzKUQhWVCxNj2LZwlXpEWRu7Yr1iev0rVT3RJADAAAAAJqF3ca4iFi6fG2sSy4+5KWtqxZH1fbtiZkoR75bvm7X2wJOHT8rPYLMrVma3NRctXFJ4npPBDkAAAAAoODtMcYtKYt33l6YHuenyjWxeMFbsV2Uo4BUViVvT7lp/ebENTSW9K1SV2yo/99TBTkAAAAAoKDtPcbl1zPj9mbl0iXxjihHAUnfFnDjusrENTSWum6VurJiWXpUJ0EOAAAAAChYzS3G1VguylHANqwV5GgadW1nbq6q31+PghwAAAAAUJCaa4yrIcqRCzZt2hSbNiVv87evSpe/lLjesObAPh/sr5l/nZMe1fmMw7oIcgAAAABAwWnuMa6GKEdT27RpU5x55pkxYcKEAw5zNTZv2poeQZNJP+NwdwQ5AAAAAKCgiHFJohxNqVu3bjFmzJi45JJL9ivMbana9RaBdT3HCxrLyrK16VG9CHIAAAAAQMEQ4+omytGUPvvZz0ZExIsvvrjPYW5FxdL0CHLKghVz06M6CXIAAAAAQEEQ4/ZMlKOpdOvWLW6++ead1/sT5iDfCXIAAAAAQN4T4+pHlKOp1GzJ1ba/YW7q+FnpETSaDWsr06N6EeQAAAAAgLwmxu0bUY6mkN6Sq21/wxw0hQ1r9u+vT0EOAAAAAMhbYtz+EeVoCnVtydUmzFHIBDkAAAAAIC+JcQdGlKOx7WlLrrbaYe7+B+6LrVuq0i+BvNOiurq6Oj0EAAAAAMh1kydPiW999/vpcVRVVUXp7Ndj/fqK9BF1GHTU0dG1W/ed1y9MfyZxDk3t0EE944OfPD4GDT8sWrdpFd//+K3pl0CjufQ7o2PI6QN2Xpf0PDE+ferVidfUxYYcAAAAAJCXRo48K64ae0V6HK1atYqBRw2JDh06po9I6X/4kYkYB7no3TeXx/0/eiKmP/Ra+gjyhiAHAAAAAOStsWOvqDPKtWlzsCi3F/0PPzJ69ylOjyHnjLh4WHz1lk/Hhz51QvoI8oYgBwAAAADkNVFu3+0uxo34wGmxadOmqK6u9uEjk49rr702/Zfdbl177bXxzItTYvQVp0b3QzunjyGvCHIAAAAAQN4T5epvTzHuh//5f6Nt27bpI2gQpaWlceONN6bHu7j22mtj7ty5ccMNN8QRRx6ePo6+Jb3SI2g0Xfvs3z9PBDkAAAAAoCCIcnsnxtGUbrvttvQooXaIKykpSR/vNGBoUXoEjab1wa3So3oR5AAAAACAgiHK7Z4YR1Pa03ZcfUMc5KKu7XqkR3US5AAAAACAgiLK7UqMo6nVtR1XnxBX3LVfegRNKr0h17ld98T17ghyAAAAAEDBEeXeJ8bR1NLbcfUJcXty2FG90yNoNJ26t0+P6kWQAwAAAAAKkignxpEbarbj9jfEtWtd+N+r5K9eHXf9e2xdBDkAAAAAoGA15ygnxpELFi9eHBGxXyGuRt8ugxLXXfsU7vctuW3EJcPSozi4df3+XirIAQAAAAAFrTlGOTGOXNG3b9/9DnE12rZul7hOP8MLmlLHQzqnR3US5AAAAACAgtecopwYR6Hp0/mwxHX34voFEGhodT2/sGPb+v31KMgBAAAAAM1Cc4hyYhyFqPMhXdOj6FvSKz2CzLXvckji+rAu9d/8FOQAAAAAgGajkKOcGEeh6lRHkBswtCg9gsy175z8+2jXdvUPw4IcAAAAANCsFGKUE+MoZMVd+6VHdd46ELKWvl1q+naqeyLIAQAAAADNTiFFOTGO5iB9a8CuffLne5TCMPzcwelR9Oq46997d0eQAwAAAACapUKIcmIczUVx5wGJ6849OySuIWv9j971Nqk9OtV/U1OQAwAAAACarXyOcmIczUnvTn0T14d0ODiGnJ6MdJClbkWdEtc92hdHx7bJW1juiSAHAAAAADRr+RjlxDiam77dDk+P4tBBvdIjyEzPw7okros7H5G43htBDgAAAABo9vIpyolxNEfdO+4a3wYcu+stBCELQ04fEId0ODgxG9A9+VzDvRHkAAAAAADyJMqJcTRnxxWPSFynN5YgK0cOOzQ9qnNrc08EOQAAAACA9+RylBPjaO7SG0meI0dj6Xd0n8R1u9Yd69za3BNBDgAAAACgllyMcmIc1L2RNOS0XWfQ0HocmtzGHFp8euK6PgQ5AAAAAICUXIpyYhzs0L1jr+jRPvm9cNjgfdtSgn11zphTolWbgxKzft0HJq7rQ5ADAAAAAKhDLkQ5MQ6Sjik6JXHdvbhz9C0R5cjOgGOL0qM4otfg9GivBDkAAAAAgN1oyignxsGuDut2ZHoUx48alB5Bgyk+skfi+rjiEdGm1cGJWX0IcgAAAAAAe9AUUU6Mg7od3qsk2rVOfs8NPm1A4hoaSl23qzyqz3GJ6/oS5AAAAAAA9qIxo5wYB3s2tPj0xHWn7u1jyOmiHA2voW5XGYIcAAAAAED9NEaUE+Ng74YP+GB6FMePLEmP4ID0LekV/Yb0Tsz293aVIcgBAAAAANRfllFOjIP66d6xV/Ron/xeGTB0100mOBCnfOyY9Gi/b1cZghwAAAAAwL7JIsqJcbBvPnDERxLXh3Q4OM6/5ozEDA7EUaf0S1y3a90xBhcPS8z2hSAHAAAAALCPGjLKiXGw74Ycenx6FEee0Dc9gv1yzphT4pAOyVtTntz/7MT1vhLkAAAAAAD2Q0NEOTEO9k+bVgfHqf1HJ2bdizvHiEv2f4MJahxzxuHpUZww4APp0T4R5AAAAAAA9tOBRDkxDg7MsX1PTo9i8KkD0iPYJyMuGRbdizsnZscVj4iObZOzfSXIAQAAAAAcgP2JcmIcHLjirv2ipOeJiVm/Ib1jyOmiHPuvrqh78uFnpkf7TJADAAAAADhA+xLlxDhoOKccPjI9ijM+4baV7J8hpw+IfkN6J2YlPU+M4q79ErP9IcgBAAAAADSA+kQ5MQ4a1uG9SqJH++T3lC059tfoz5+aHsUHS85Lj/aLIAcAAAAA0ED2FOVKhhwrxkEGRh51UXpUZ1iBPanr2XENtR0XghwAAAAAQMPaXZRr1apVeiTGQQMYXDxsly257sWdY8Qlbl1J/Q0fPTg9arDtuBDkAAAAAAAa3u6iXG1iHDScC4/f9fvttI8fmx5Bnc6/5oxMt+NCkAMAAAAAyMaeopwYBw2ruGu/KOl5YmLWqXv7uPjrIxMzSOtb0iuGnjkwPW7Q7bgQ5AAAAAAAslNXlBPjIBvnHP2J9CiOHXFE9C3plR7DTh/8h+PjkA4HJ2an9h/doNtxIcgBAAAAAGSrdpQT4yA73Tv2ilP7j07MWrU5KC748gcTM6gx/NzBMeT0AYlZu9Yd4/RB5yRmDaFFdXV1dXoIAAAAAEDDmjx5Spx++mliHGRoS9XmuPnJ78bGrRWJ+cQ7n4+p42clZvCNO/8xOnVvn5iNHnJpnHrkWYlZQ7AhBwAAAADQCEaOPEuMg4y1aXVwfGzoZelxjPrsSW5dScKl3xm9S4w7rEtJJjEuBDkAAAAAAKCQDC4eFiU9T0zM3LqS2uq6VWVExOhjPpkeNRhBDgAAAAAAKCgfHfaZaNe6Y2LW5/Ducf41ZyRmND99S3rF6M+fmh7HmQMviuKu/dLjBiPIAQAAAAAABaVj285xzuBdt51O/PDgGH7u4PSYZuQjXzg9DulwcGJ2WJeS+NDg8xKzhibIAQAAAAAABWdY/1PjuOIRiVmrNgfFyEuHe55cM3X+NWdEvyG90+P4+LBdnzvY0AQ5AAAAAACgIJ133Kd2uXVlp+7t4yNfOD0xo/ANP3dwnPKxY9LjuGDoldG9Y/aBVpADAAAAAAAKUptWB8elp/xLehz9hvSOi78+Mj2mQPUt6RUfu2rX5wceVzwihvXf9XlyWRDkAAAAAACAglXctV9cMPTK9DiOHzUozr9m10hDYelb0is+850PR6s2ByXmPdoXx3nHfSoxy5IgBwAAAAAAFLRh/U+NU/uPTo/jxA8PjuHnDk6PKSAXfPmD0al7+8SsXeuO8amT/jnatDo4Mc+SIAcAAAAAABS8s4acH4d1KUnMWrU5KD521RmiXIH6wg0XRp/Du6fHcfEJVzXKc+NqE+QAAAAAAICC16bVwfHZ074c7Vp3TMxFucL0hRsujH5DeqfHccHQK+PwXskw2xgEOQAAAAAAoFlo0+rg+PwHrqszyo28dHj0LWncrSmysbsYd2r/0TGs/6npcaMQ5AAAAAAAgGaje8de8fkPXJceR6fu7eMz3/mwKJfn9hTjRg+9JD1uNIIcAAAAAADQrHTv2Cs+eeIX0+Po1L19XPnjj7t9ZZ7aXYw7rEtJk8a4EOQAAAAAAIDmaHDxsDqjnGfK5ac9xbjPnvbl9LjRtaiurq5ODwEAAAAAAJqDOWWz4sGXfpMeR9WWbTHp3hkxdfys9BE5pG9Jr7jgyx+MPod3Tx/tjHFtWh2cPmp0ghwAAAAAANCs7S7KRUS88Pgb8dgt09JjckDfkl7xme98ODp1b58+yqkYF4IcAAAAAABAxNvLSmPCy7fGxq0V6aN46+XFcdf3/5Qe04SGnzs4PnbVGdGqzUHpozi1/+g4a8j5ORPjQpADAAAAAADYYWXF/2/v/n6rPgs4jn+ilN8dhbYHOaOsMDi0cVigRmhgUVDBqInbUCMXJjPxQi+99Q/wwsR4650kM/Fi2abRXYywLYvbgCluhG10/P6VDkorHFpoi13iDSPd1xYKa1nbvV6X3885f8E7z/N0Z8+bvx01yvV2VfPc717NhWPdxYkH7Pu/2JKN324ZM8btWLer+PkzJ8gBAAAAAADc0tvXnb8dfibnrx4rThnoH8rePQdz6KXO4sQDsLxSynd+3pEVrUuLU5JkR+vubHr0G8XPU4IgBwAAAAAAMMLN4aG8cGhPjl3+d3FKkhzdfyZ//s3e4mcmUfvOlmzb3T7qe3Hza2rzvXU/TUu5rThNGYIcAAAAAADAKPYeeS4Hz44e3nq7qtm752CO7j9TnJhgT/1qW9ZvX1P8nCRpWFDOj7/6y9TXlorTlCLIAQAAAAAAjKGz63BePPLMqO/KDd/8KO++firP//7V4sQEaO1ozo6nN6W+vKg4JUkqjRvzZPvTmT1rTnGacgQ5AAAAAACAO7jTu3K5dVru9ecPe1tuAu3+9Y60djQXP982ld+LG40gBwAAAAAAcBc3h4dy4MQree3EX4rTbSffvpCX//SvXDjWXZwYp6272vL4D9dn3sLRT71NlysqiwQ5AAAAAACAceq6ci5/feeP6bneVZwS11jet/adLdn6VNuY11MmyddXP5HNq7dPiysqiwQ5AAAAAACAezCe03ID/UM58tqJ/P0PbxQnRmjtaM6WJ9uyonVpcbqtYUE5P1j/s5QXryhO04YgBwAAAAAAcB+6rpzL3veeHfNtuQhzYxpPiMutt+I2PNIxLU/FjSTIAQAAAAAAfAqHzx7Mvs5nc+O/fcXptoH+oXzw1rm89eJ7n+s35rbuakvLpua7hrhK48Z8t+0nqZ079hWW04kgBwAAAAAA8CmN5xrL3HpjrutkT9544XCO7j9TnGek5ZVS1m9fk5bNzXmofkFx/oSmukp2fPlH0/p6ytEIcgAAAAAAABOkb7Ca/cf35eDZvcXp/1zrvZ7OA2fyzivHZ+SpufadLdnwzbUpP9qQWbO/WJw/oWFBOdvWPpGWcltxmhEEOQAAAAAAgAl2L2EuSS6e7s259y9O+zjXvrMlj21ZlfKaxsxbePd332Z6iPuYIAcAAAAAADBJ+garefvMm/nn2Zfv+MbcSBdP9+bi6f/k7Psf5tBLncV5SlleKaVlc3OaH1uWxqa6cUW43Hoj7msrt2VlqVKcZiRBDgAAAAAAYJLdHB7Kqe7OHDi1L+evHivOYxroH0r1cv+UCXStHc15eE0pD69uSOOKxXd9E26k+TW1WVfuSHvz46mvLRXnGU2QAwAAAAAAeIB6+7pz6Mw/cqRr/7hPzY3U21XN9epgrl8dyPkPLmWgf2jCQ93ySinN65alrnFhapcsSOmRxZn/0Nxxn4Abqamuks2rvpVVpZbMnnXv/58JBDkAAAAAAIDPyOnuYzl+6ch9x7mRhm9+lGpPf5LcDnbjVXpkcZKkZs6sezr1Npamuko2NG3NqqUtqZ27qDh/7ghyAAAAAAAAU8DHce5kz7vpud5VnKe8r5S3prm+IsKNQpADAAAAAACYYvoGqzl1qTOXrl2YsoGu0rgxzQ1r07RkVcqLVxRnRhDkAAAAAAAApri+wWp6rl1Kd19XLlbPp6t66oFFuvk1tVletybLFq3IonlLsnzJytTXloo/4w4EOQAAAAAAgGmqt687Q8ODuXztwwwOD6R6ozdXbvTc3i9cPX7Ht+ma6iqZV7MwSTK3Zn6+tKgpSVKqLWdOzdw01C7N7FlzCv/iXglyAAAAAAAAMIm+UPwAAAAAAAAATBxBDgAAAAAAACaRIAcAAAAAAACTSJADAAAAAACASSTIAQAAAAAAwCQS5AAAAAAAAGAS/Q8JSeEMw4BJAwAAAABJRU5ErkJggg==;" vertex="1" parent="1">
          <mxGeometry x="-269" y="80" width="236.24" height="180" as="geometry" />
        </mxCell>
        <mxCell id="KngnvmtrA6OP-5YAWjl_-3" value="F3" style="verticalLabelPosition=middle;verticalAlign=middle;html=1;shape=mxgraph.flowchart.on-page_reference;labelPosition=center;align=center;" vertex="1" parent="1">
          <mxGeometry x="-1040" y="140" width="40" height="40" as="geometry" />
        </mxCell>
        <mxCell id="KngnvmtrA6OP-5YAWjl_-4" value="1.3.5&lt;div&gt;&lt;div&gt;Red bayesiana de desempeño&lt;/div&gt;&lt;div&gt;t=6 d&lt;/div&gt;&lt;/div&gt;" style="rounded=1;whiteSpace=wrap;html=1;absoluteArcSize=1;arcSize=14;strokeWidth=2;align=center;verticalAlign=top;" vertex="1" parent="1">
          <mxGeometry x="-420" y="120" width="100" height="80" as="geometry" />
        </mxCell>
        <mxCell id="KngnvmtrA6OP-5YAWjl_-5" value="" style="edgeStyle=orthogonalEdgeStyle;rounded=0;orthogonalLoop=1;jettySize=auto;html=1;strokeColor=#FF0000;entryX=0;entryY=0.5;entryDx=0;entryDy=0;" edge="1" parent="1" target="FbaqpglJVMi_n5HGXFX3-7">
          <mxGeometry relative="1" as="geometry">
            <mxPoint x="-600" y="160" as="sourcePoint" />
            <mxPoint x="-559" y="160" as="targetPoint" />
          </mxGeometry>
        </mxCell>
        <mxCell id="KngnvmtrA6OP-5YAWjl_-6" value="" style="edgeStyle=orthogonalEdgeStyle;rounded=0;orthogonalLoop=1;jettySize=auto;html=1;strokeColor=#FF0000;entryX=0;entryY=0.5;entryDx=0;entryDy=0;exitX=1;exitY=0.5;exitDx=0;exitDy=0;" edge="1" parent="1" source="FbaqpglJVMi_n5HGXFX3-7" target="KngnvmtrA6OP-5YAWjl_-4">
          <mxGeometry relative="1" as="geometry">
            <mxPoint x="-461" y="159.41" as="sourcePoint" />
            <mxPoint x="-420" y="159.41" as="targetPoint" />
          </mxGeometry>
        </mxCell>
        <mxCell id="KngnvmtrA6OP-5YAWjl_-7" value="1.3.6&lt;div&gt;Modelación de ML y calibración&lt;div&gt;t=8 d&lt;/div&gt;&lt;/div&gt;" style="rounded=1;whiteSpace=wrap;html=1;absoluteArcSize=1;arcSize=14;strokeWidth=2;align=center;verticalAlign=top;" vertex="1" parent="1">
          <mxGeometry x="-960" y="280" width="98" height="80" as="geometry" />
        </mxCell>
        <mxCell id="KngnvmtrA6OP-5YAWjl_-8" value="" style="edgeStyle=orthogonalEdgeStyle;rounded=0;orthogonalLoop=1;jettySize=auto;html=1;" edge="1" parent="1" source="KngnvmtrA6OP-5YAWjl_-10" target="KngnvmtrA6OP-5YAWjl_-11">
          <mxGeometry relative="1" as="geometry" />
        </mxCell>
        <mxCell id="KngnvmtrA6OP-5YAWjl_-9" value="" style="edgeStyle=orthogonalEdgeStyle;rounded=0;orthogonalLoop=1;jettySize=auto;html=1;strokeColor=#FF0000;" edge="1" parent="1" source="KngnvmtrA6OP-5YAWjl_-10" target="KngnvmtrA6OP-5YAWjl_-11">
          <mxGeometry relative="1" as="geometry" />
        </mxCell>
        <mxCell id="KngnvmtrA6OP-5YAWjl_-10" value="&lt;div&gt;1.3.7&lt;/div&gt;&lt;div&gt;Ensamble de señales&lt;div&gt;t=6 d&lt;/div&gt;&lt;/div&gt;" style="rounded=1;whiteSpace=wrap;html=1;absoluteArcSize=1;arcSize=14;strokeWidth=2;align=center;verticalAlign=top;" vertex="1" parent="1">
          <mxGeometry x="-820" y="280" width="98" height="80" as="geometry" />
        </mxCell>
        <mxCell id="KngnvmtrA6OP-5YAWjl_-11" value="1.3.8&lt;div&gt;Dashboard: curvas S, histogramas&lt;div&gt;t=7 d&lt;/div&gt;&lt;/div&gt;" style="rounded=1;whiteSpace=wrap;html=1;absoluteArcSize=1;arcSize=14;strokeWidth=2;align=center;verticalAlign=top;" vertex="1" parent="1">
          <mxGeometry x="-681" y="280" width="98" height="80" as="geometry" />
        </mxCell>
        <mxCell id="KngnvmtrA6OP-5YAWjl_-12" value="1.3.9&lt;div&gt;&lt;div&gt;Escenarios&amp;nbsp;&lt;/div&gt;&lt;div&gt;What-if&lt;/div&gt;&lt;div&gt;t=5 d&lt;/div&gt;&lt;/div&gt;" style="rounded=1;whiteSpace=wrap;html=1;absoluteArcSize=1;arcSize=14;strokeWidth=2;align=center;verticalAlign=top;" vertex="1" parent="1">
          <mxGeometry x="-541" y="280" width="100" height="80" as="geometry" />
        </mxCell>
        <mxCell id="KngnvmtrA6OP-5YAWjl_-13" value="" style="endArrow=classic;html=1;rounded=0;exitX=1;exitY=0.5;exitDx=0;exitDy=0;strokeColor=#FF0000;entryX=0;entryY=0.5;entryDx=0;entryDy=0;" edge="1" parent="1" source="KngnvmtrA6OP-5YAWjl_-7" target="KngnvmtrA6OP-5YAWjl_-10">
          <mxGeometry width="50" height="50" relative="1" as="geometry">
            <mxPoint x="-830" y="319.99" as="sourcePoint" />
            <mxPoint x="-800" y="320" as="targetPoint" />
          </mxGeometry>
        </mxCell>
        <mxCell id="KngnvmtrA6OP-5YAWjl_-14" value="1.3.10&lt;div&gt;&lt;div&gt;Exportaciones y API&lt;/div&gt;&lt;div&gt;t=6 d&lt;/div&gt;&lt;/div&gt;" style="rounded=1;whiteSpace=wrap;html=1;absoluteArcSize=1;arcSize=14;strokeWidth=2;align=center;verticalAlign=top;" vertex="1" parent="1">
          <mxGeometry x="-402" y="280" width="100" height="80" as="geometry" />
        </mxCell>
        <mxCell id="KngnvmtrA6OP-5YAWjl_-15" value="" style="edgeStyle=orthogonalEdgeStyle;rounded=0;orthogonalLoop=1;jettySize=auto;html=1;strokeColor=#FF0000;entryX=0;entryY=0.5;entryDx=0;entryDy=0;" edge="1" parent="1" target="KngnvmtrA6OP-5YAWjl_-12">
          <mxGeometry relative="1" as="geometry">
            <mxPoint x="-582" y="320" as="sourcePoint" />
            <mxPoint x="-541" y="320" as="targetPoint" />
          </mxGeometry>
        </mxCell>
        <mxCell id="KngnvmtrA6OP-5YAWjl_-16" value="" style="edgeStyle=orthogonalEdgeStyle;rounded=0;orthogonalLoop=1;jettySize=auto;html=1;strokeColor=#FF0000;entryX=0;entryY=0.5;entryDx=0;entryDy=0;exitX=1;exitY=0.5;exitDx=0;exitDy=0;" edge="1" parent="1" source="KngnvmtrA6OP-5YAWjl_-12" target="KngnvmtrA6OP-5YAWjl_-14">
          <mxGeometry relative="1" as="geometry">
            <mxPoint x="-443" y="319.40999999999997" as="sourcePoint" />
            <mxPoint x="-402" y="319.40999999999997" as="targetPoint" />
          </mxGeometry>
        </mxCell>
        <mxCell id="KngnvmtrA6OP-5YAWjl_-17" value="CG3" style="rhombus;whiteSpace=wrap;html=1;" vertex="1" parent="1">
          <mxGeometry x="-372" y="400" width="40" height="40" as="geometry" />
        </mxCell>
        <mxCell id="KngnvmtrA6OP-5YAWjl_-18" value="F4" style="verticalLabelPosition=middle;verticalAlign=middle;html=1;shape=mxgraph.flowchart.on-page_reference;labelPosition=center;align=center;" vertex="1" parent="1">
          <mxGeometry x="-372" y="460" width="40" height="40" as="geometry" />
        </mxCell>
        <mxCell id="KngnvmtrA6OP-5YAWjl_-19" value="" style="edgeStyle=orthogonalEdgeStyle;rounded=0;orthogonalLoop=1;jettySize=auto;html=1;strokeColor=#FF0000;entryX=0.5;entryY=0;entryDx=0;entryDy=0;exitX=0.5;exitY=1;exitDx=0;exitDy=0;" edge="1" parent="1" source="KngnvmtrA6OP-5YAWjl_-14" target="KngnvmtrA6OP-5YAWjl_-17">
          <mxGeometry relative="1" as="geometry">
            <mxPoint x="-440" y="399" as="sourcePoint" />
            <mxPoint x="-401" y="399" as="targetPoint" />
          </mxGeometry>
        </mxCell>
        <mxCell id="KngnvmtrA6OP-5YAWjl_-20" value="" style="edgeStyle=orthogonalEdgeStyle;rounded=0;orthogonalLoop=1;jettySize=auto;html=1;exitX=0.5;exitY=1;exitDx=0;exitDy=0;entryX=0.5;entryY=0;entryDx=0;entryDy=0;entryPerimeter=0;" edge="1" parent="1" source="KngnvmtrA6OP-5YAWjl_-17" target="KngnvmtrA6OP-5YAWjl_-18">
          <mxGeometry relative="1" as="geometry">
            <mxPoint x="-332" y="455" as="sourcePoint" />
            <mxPoint x="-310" y="455" as="targetPoint" />
          </mxGeometry>
        </mxCell>
      </root>
    </mxGraphModel>
  </diagram>
</mxfile>
